<svg version="1.1" xmlns="http://www.w3.org/2000/svg" viewBox="0 0 2020.2837837838088 1595.6621621621618">
  <!-- svg-source:excalidraw -->
  <defs>
    <style>
      @font-face {
        font-family: "Virgil";
        src: url("https://excalidraw.com/FG_Virgil.woff2");
      }
      @font-face {
        font-family: "Cascadia";
        src: url("https://excalidraw.com/Cascadia.woff2");
      }
    </style>
  </defs>
  <rect x="0" y="0" width="2020.2837837838088" height="1595.6621621621618" fill="#ffffff"></rect><g transform="translate(348.633612485728 197.52360106585593) rotate(0 669.0140845070418 511.9718309859155)"><path d="M-1.178259299695492 1.0453443989157678 C360.24276141762505 10.472329762032329, 722.602235809262 10.84642038588792, 1338.3123462473625 -0.8807724013924599 M0.7053314678370953 0.6552839644253254 C353.40606414646317 -2.4869361954570652, 708.4266691090247 -3.023131974303806, 1338.5607626689248 0.02831283882260323 M1338.692094401049 0.3423542007803917 C1342.952872142877 345.2989268754832, 1340.8603954411403 688.334599586807, 1337.4607092177146 1024.0918314401742 M1338.7331352961833 0.627403224259615 C1330.751509695006 324.9367763346193, 1330.7953787374026 651.3794143680747, 1337.5280480874353 1023.4064117279586 M1337.9780916487448 1022.6591597025034 C802.8986802744294 1016.1825767845755, 271.12852335568033 1017.3880303234702, 0.9890223756432533 1024.2427566473123 M1338.5863887322716 1024.1676786270675 C1004.3060150231058 1016.1101465320609, 668.8468319572504 1015.7543386316321, 0.47573916837573055 1023.5490586367187 M0.8342734590172768 1023.1578021947977 C3.9756004300650583 703.0807289041421, 5.244778391414545 383.27914236885766, -0.07777273505926133 -0.5676940456032753 M0.4405556432902813 1024.4051192369996 C2.7667568698735305 816.7903853295503, 2.484901119789607 608.7365042358217, -0.43389344289898873 -0.4703821770846844" stroke="#000000" stroke-width="2" fill="none"></path></g><g transform="translate(350.0420631899524 198.93205177008122) rotate(0 667.6056338028175 59.15492957746483)"><path d="M-0.08260193020105362 -0.07777273505926133 C280.052224732411 -0.436901968360786, 560.6610733066441 -0.40670868718708, 1336.0923788922155 0.9229145303368569 M-0.4172201506793499 -0.43389344289898873 C367.32139670627464 6.167027790582102, 735.5239425488243 7.098914868867319, 1335.8728082934642 0.43054220601916315 M1332.534759056034 2.2558022178709507 C1337.4840802281162 40.816865253249134, 1332.0000639288685 81.83746579473083, 1338.4070509786034 117.96905571426942 M1333.9932621589178 1.6590815167874098 C1335.2332851184465 26.872415336635978, 1333.5513306749917 52.09728289366716, 1334.1162831058973 118.31307232025756 M1335.6887085335577 118.46089091282083 C995.4058894520923 123.87672856930703, 655.3684790009979 123.76359604481668, -0.34415164142847066 116.96597576122477 M1334.5927621403957 118.43254658933475 C951.5907498040781 122.31310017785775, 567.0927543439815 123.43972144803749, -0.45185247585177424 118.13899731393649 M2.6795846186578274 120.53898638691498 C3.2890569342588885 79.85968766608084, -1.8211419211411972 37.105990904475206, 2.712391372770071 1.8439549840986729 M-1.1569143813103437 116.89575892332687 C1.075313216442584 80.05601516148263, 1.2239671409077635 39.64906978525853, -0.12409958057105541 1.5891462545841932" stroke="#000000" stroke-width="2" fill="none"></path></g><g transform="translate(386.6617814998135 252.45317853064444) rotate(0 10.563380281691025 10.563380281691025)"><path d="M7.510721901579104 1.4272866835264946 C9.65447484057111 1.0303667224262378, 14.106166470135532 2.1724533875843104, 16.169245583598293 2.6850932517449717 C18.232324697061053 3.197733115905633, 19.045078890065817 2.490230822190689, 19.88919658235567 4.5031258684904625 C20.733314274645522 6.516020914790236, 21.8974945408105 12.156235866901799, 21.233951737337414 14.762463529543615 C20.57040893386433 17.36869119218543, 18.14480419087103 19.309074596357515, 15.907939761517156 20.140491844341362 C13.671075332163282 20.97190909232521, 10.287164979809482 20.359173998817667, 7.812765161214165 19.75096701744669 C5.3383653426188475 19.142760036075714, 2.133103420795679 18.20048293622313, 1.0615408499452492 16.491249956115496 C-0.010021720905180498 14.782016976007863, 0.9544094979322135 11.658865805734806, 1.383389736111587 9.495569136800901 C1.8123699742909605 7.332272467866996, 1.9073313900956819 5.153378098386689, 3.6354222790214905 3.511469942512065 C5.363513167947299 1.8695617866374408, 9.208326355735814 -0.0800090906535636, 11.75193506966644 -0.3558797984468427 C14.295543783597065 -0.6317505062401219, 18.530120908389954 1.8422792288751282, 18.89707456260524 1.8562456957523903 M9.112994742355955 2.2220990932802245 C10.566660421850877 2.69222587242984, 13.583931259959758 2.092272916116835, 15.828602648499128 3.475582781895767 C18.073274037038498 4.858892647674699, 21.61135176138707 8.030851962065345, 22.581023073592178 10.521958287953813 C23.550694385797286 13.013064613842282, 23.00442692160861 16.982088063795576, 21.646630521729765 18.42222073722658 C20.288834121850922 19.862353410657587, 16.668143509456698 18.965193652377316, 14.434244674319125 19.162754328539854 C12.200345839181553 19.360315004702393, 10.131209169858721 20.48917903065027, 8.243237510904336 19.607584794201806 C6.355265851949952 18.72599055775334, 4.5964598526546485 16.195676159763828, 3.1064147205928148 13.873188909849073 C1.616369588530981 11.550701659934317, -0.5594912747777429 7.5418114594479375, -0.6970332814666662 5.672661294713272 C-0.8345752881555896 3.803511129978607, -0.09146581584711688 3.3936927394482086, 2.281162680459275 2.6582879214410795 C4.653791176765667 1.9228831034339504, 11.77481126109221 1.3316134118518115, 13.538737696371685 1.2602323866704985 C15.30266413165116 1.1888513614891856, 13.400088368801454 2.2544776170296505, 12.864721292136117 2.2300017703532014" stroke="#5f3dc4" stroke-width="2" fill="none"></path></g><g transform="translate(421.8730491054557 252.45317853064444) rotate(0 10.563380281691025 10.563380281691025)"><path d="M15.696709916259213 0.12903923429893105 C17.63013658336734 0.6365729829486093, 20.320873323395833 3.7909846303848584, 21.364253503155837 5.848890749773562 C22.40763368291584 7.906796869162266, 22.887480485437337 10.518411281125633, 21.956990994819236 12.476475950631153 C21.026501504201136 14.434540620136673, 18.07871073242339 16.116914098950367, 15.781316559447239 17.59727876680668 C13.483922386471091 19.077643434662996, 10.033075250013162 21.178136954620594, 8.172625956962348 21.35866395776904 C6.312176663911533 21.539190960917484, 5.766719572608629 20.146237614545264, 4.618620801142351 18.680440785697343 C3.470522029676072 17.21464395684942, 1.7777511628833087 14.95639533173549, 1.284033328164675 12.56388298468151 C0.7903154934460412 10.171370637627529, 0.5411155382090196 6.238685317440708, 1.6563137928305487 4.32536670337346 C2.771512047452078 2.4120480893062117, 4.715977860944888 0.5077518888804683, 7.97522285589385 1.083971300278023 C11.234467850842812 1.6601907116755776, 19.51044427943262 5.2994465965007205, 21.211783762524316 7.782683171758787 C22.913123245616013 10.265919747016854, 18.136042404521707 16.156940644753476, 18.183259754444023 15.983390751826423 M19.03317963445086 1.2182300677588902 C20.417201472629493 2.480741144946271, 19.345737234478694 7.562059454634583, 19.186022638087486 9.956744457375542 C19.02630804169628 12.351429460116503, 18.859899739610057 13.398498502839269, 18.074892056103614 15.586340084204647 C17.28988437259717 17.774181665570023, 15.928253038646366 22.34474646292884, 14.475976537048833 23.083793945567805 C13.0237000354513 23.82284142820677, 11.750724556868102 21.080176255146576, 9.361233046518414 20.020624980038434 C6.971741536168727 18.961073704930293, 1.4525791044932397 18.321078895644856, 0.13902747495070678 16.72648629491896 C-1.1745241545918261 15.131893694193062, 0.9252389271789405 12.323201367651595, 1.4799232692632174 10.453069375683048 C2.0346076113474942 8.582937383714501, 1.7705810135404094 7.282407323221961, 3.467133527456368 5.505694343107682 C5.163686041372326 3.7289813629934025, 9.03277557229323 -0.04223519894467431, 11.659238352758969 -0.207208505002626 C14.285701133224707 -0.3721818110605777, 18.70245052822488 4.192472738763364, 19.2259102102508 4.515854506759972 C19.749369892276718 4.83923627475658, 15.691283450777112 2.297646976608111, 14.799996444914482 1.733082102977022" stroke="#5f3dc4" stroke-width="2" fill="none"></path></g><g transform="translate(457.08431671110156 252.45317853064466) rotate(0 10.563380281691025 10.563380281691025)"><path d="M4.75368645653888 3.039653292359419 C6.262538786136453 1.228952773902406, 8.331417384213093 0.2159282693109268, 10.413431347331565 0.08798800236989557 C12.495445310450037 -0.039952264571135654, 15.720164421870937 0.6384158643721742, 17.245770235249715 2.2720116907132315 C18.771376048628493 3.905607517054289, 18.837462867753736 7.827761845948697, 19.567066227604236 9.889562960416239 C20.296669587454737 11.95136407488378, 22.47029914530912 12.6375796705122, 21.623390394352725 14.642818377518484 C20.77648164339633 16.64805708452477, 17.10867380355013 21.144212222190337, 14.485613721865874 21.920995202453952 C11.862553640181622 22.697778182717567, 7.7833543012903705 20.531841301369166, 5.8850299042472045 19.303516259100178 C3.9867055072040385 18.07519121683119, 3.8405867545544505 16.003059380720213, 3.09566733960688 14.551044948840026 C2.3507479246593097 13.099030516959841, 0.5926525857554891 13.185998987810708, 1.4155134145617811 10.591429667819066 C2.238374243368073 7.996860347827424, 5.867328492793514 0.31357447380858283, 8.032832312444633 -1.0163709711098292 C10.19833613209575 -2.346316416028241, 14.438385374122008 2.263201192500525, 14.408536332468493 2.611756998308593 M9.929733938614175 1.6317105283342421 C12.509650709924655 1.720027287109723, 16.650707497492906 2.801778345568013, 18.871370860855404 4.483105601079904 C21.0920342242179 6.164432856591795, 23.229170244577613 9.527575061437815, 23.25371411878915 11.719674061405588 C23.27825799300069 13.91177306137336, 20.80910048241854 16.044686475719903, 19.01863410612464 17.635699600886536 C17.22816772983074 19.22671272605317, 14.588381618925268 20.534116909657193, 12.510915861025758 21.26575281240538 C10.433450103126248 21.99738871515357, 8.53771168798408 22.606789600787568, 6.55383955872758 22.025515017375668 C4.569967429471079 21.444240433963767, 1.7674927483276257 19.637219277630333, 0.6076830854867534 17.77810531193397 C-0.5521265773541189 15.918991346237608, -0.6591223973368612 13.139009841519597, -0.4050184183176544 10.870831223197492 C-0.1509144392984476 8.602652604875386, 0.27845135866126625 6.050344283978118, 2.132306959601994 4.169033602001335 C3.9861625605427218 2.2877229200245512, 9.52771915997668 0.7248719360014375, 10.718115187326713 -0.41703286866320965 C11.908511214676746 -1.5589376733278568, 9.317593114090068 -2.74406659788943, 9.274683123702196 -2.6823952259865482" stroke="#5f3dc4" stroke-width="2" fill="none"></path></g><g transform="translate(776.802626570232 234.14331937571478) rotate(0 26.056338028169193 26.760563380281724)"><path d="M0.7749206461012363 -1.8054920472204685 C11.160010685934441 -2.28848614934569, 22.285033739683662 1.7856335377346935, 56.09588072286351 1.2724578343331814 M1.31702852062881 -1.7162807267159224 C15.499254800956534 1.1663734107475066, 28.954184252060625 0.4248333960037016, 54.01638039970203 1.7123585063964128 M55.95949671254857 1.8798959217965603 C52.0125322607415 16.978504758170818, 51.62792101177147 38.83028360797281, 50.069212770325976 53.50484765546639 M52.00239619636341 0.6808791477233171 C50.05514278260266 14.343450848196824, 51.646371327314725 26.172803020472088, 50.672627240655856 52.92474494913836 M50.14996132837041 55.318493018320396 C37.005889743330656 55.35034789367992, 21.04437812533191 55.71430064960796, 0.8420124687254429 50.305004606417015 M51.140164643762546 53.42273031214495 C31.438932886845855 51.45130588922289, 13.380887699143031 52.316741429899004, -1.3352412600070238 52.09026496151705 M1.8029795326292515 53.146146307161644 C4.1150748589089226 37.43553356007796, 0.5247369864037348 27.20343262329701, 1.3814532198011875 -3.871626976877451 M-0.17866271920502186 53.29300801495333 C1.0989756155759103 36.095629866510464, -1.143394930288195 17.641814416431856, -1.4896976966410875 -1.1975145619362593" stroke="#a61e4d" stroke-width="2" fill="none"></path></g><g transform="translate(896.5209364293751 235.55177007994007) rotate(0 26.056338028169193 26.760563380281724)"><path d="M-3.2121099792420864 -3.7608079947531223 C9.918848217084667 1.7694439214037756, 24.429754075764937 2.7812276404665806, 52.591207122666674 3.173102732747793 M-0.1713888067752123 -1.1090918462723494 C15.758279479777844 -0.7673921970729303, 31.766620175388518 -2.1608391789798214, 51.33845081949039 -0.626407889649272 M49.13612804399236 -0.9491039551794529 C53.14984223173154 12.108176738128712, 54.66539654062284 21.91337842142711, 51.84087202535375 53.268747101000145 M50.956226259706455 1.0118667799979448 C50.89794414613799 17.676642604828114, 51.556637519341265 35.36922185067879, 50.35033616447254 51.61220650414248 M51.689839577538805 50.78145862596352 C41.839954640847765 52.607078133675685, 28.367331819635236 53.89087265596115, 1.8044332899153233 51.32046426313241 M50.367113679883914 53.47965292671938 C29.5179150788719 54.34443013716338, 10.153028535355006 53.29538546848891, 0.8278058748692274 52.538512573039725 M0.02678341045975685 50.38313306348641 C-2.6686648019182857 33.36405920268788, 3.1394538990628544 20.388560628754597, -3.0548419319093227 3.7251048050820827 M-0.0020200032740831375 52.01354871729632 C0.5191134684260053 39.32609358201674, 0.897796618240611 24.645567844320173, 0.946590481325984 0.86912408657372" stroke="#a61e4d" stroke-width="2" fill="none"></path></g><g transform="translate(1103.563189950537 232.73486867148972) rotate(0 26.056338028169193 26.760563380281724)"><path d="M-0.45356517657637596 1.955361481755972 C15.76811977226663 -2.572406902515766, 22.79150531315065 -1.6607856895564765, 54.74368426786168 1.3973784409463406 M-0.6190692204982042 0.9096573311835527 C9.605116239788327 -1.8761029310104727, 21.272292956788725 -1.8357711500999807, 53.168199986455875 -0.8043692987412214 M55.27642867551549 -2.4973197020590305 C55.104087312142134 20.262258656952607, 52.396745045105696 30.97495820126698, 55.691389179093676 49.58227528112252 M51.82404610538288 -0.45636257342994213 C50.523089209571836 19.390662590933754, 52.101427892223356 40.38457076616171, 51.381388813493686 53.55462740401049 M51.59556303010686 51.958237538507774 C31.362128785142616 52.29274635617694, 18.638647085344388 53.01031391923389, 1.2796261943876743 54.35715604799111 M53.894733101366 55.196747288501456 C31.185541540384506 52.60898784464101, 10.532012134554378 55.07245729034642, -1.8357730526477098 54.92010240296145 M0.9058154262602329 50.13756776826699 C-0.07999466905291697 31.28724851364825, 2.4673856591254886 14.599767241207239, -0.3291187845170498 1.1071525774896145 M-0.6011610645800829 54.8753784153821 C-1.5564718691658392 34.3159696365589, -0.17867563646549134 13.36303859516245, -1.8759144563227892 -0.26672115735709667" stroke="#a61e4d" stroke-width="2" fill="none"></path></g><g transform="translate(1002.1547392462944 234.143319375715) rotate(0 26.056338028169193 26.760563380281724)"><path d="M-3.8859422244131565 -2.317114647477865 C18.700351791351544 1.867579290380987, 41.13405410179398 0.7558752984910333, 53.90033724741443 -3.806645568460226 M-0.6794154327362776 -0.06235361285507679 C15.601827805258559 0.7817800237574186, 35.95195112443015 -1.1672841713986788, 53.840714935449796 -1.835266413167119 M49.19237616495593 2.2039430774748325 C55.3219181168041 18.409494512832527, 56.553043113943076 43.06457368866874, 52.26477947668536 51.705330329409435 M52.78407383361264 1.042106805369258 C50.78391860732451 12.55127419371317, 50.02204244145766 24.992995827052198, 53.45248586335583 55.48032129967828 M49.06478348211749 56.69867654370387 C35.25592622142572 51.300677298738776, 23.176069052286678 50.633881448938666, 0.8855909071862698 49.87980754899104 M52.89161807694836 53.83140362465997 C40.614911276270234 54.85378026846856, 27.15574178333137 52.70478397492379, -1.4124768059700727 51.85322577918191 M1.7960990630090237 57.01899726914485 C-1.5697952788060812 37.48394280798003, -1.5727629940694479 20.161355540418732, 3.7052867375314236 1.896107379347086 M-0.942903308197856 54.635536741858914 C1.7862113021891304 37.16531601062863, -0.36844516763279966 23.025476672830955, -1.7848634403198957 -1.1431276816874743" stroke="#a61e4d" stroke-width="2" fill="none"></path></g><g transform="translate(1266.9434716406577 235.55177007994052) rotate(0 143.66197183098575 22.535211267605632)"><path d="M0.7938719398141514 2.367290599861988 C108.5821781865614 -6.054880896941656, 224.6231340230833 -0.8592330419789773, 288.91500183758177 1.7637131941741149 M-1.478100683888511 0.859585820554455 C96.83508513590483 4.696454477919364, 194.69908793675765 4.48899933889767, 286.6453218605643 -0.7301661484420894 M286.1993973166482 -2.9766351021826267 C289.93455634691105 18.505763113131405, 287.9043190298258 32.73168778718567, 288.8761414200799 43.208404184699475 M288.3269231770919 -1.1758256237953901 C288.7126924217426 13.381858265499625, 285.46129820949665 25.17657409144015, 287.3110828255103 44.264985717282116 M285.4450105486749 46.774824058049454 C189.08874496592716 48.93269285825641, 91.10488397219073 45.62011981250544, -1.8726322358067387 43.12012148565201 M285.9105605920392 43.587315916192516 C174.10531038766544 40.744495309324535, 58.23154650820775 41.8942402421712, -0.3840900211874726 45.34715830177552 M-0.38986116275191307 42.08223533761543 C-2.5734244480624167 37.688642277316724, 1.129332314442161 26.927979972633256, 3.82180267944932 2.2371396981179714 M-0.3159335870295763 46.64024303053361 C1.5653296421793566 35.378955707347515, 1.0090228627947435 23.78695129736943, -0.3519803900271654 1.5545929986983538" stroke="#087f5b" stroke-width="2" fill="none"></path></g><g transform="translate(1278.1054434716716 246.99543205177156) rotate(0 32.5 12.5)"><text x="32.5" y="18" font-family="Virgil, Segoe UI Emoji" font-size="20px" fill="#087f5b" text-anchor="middle" style="white-space: pre;" direction="ltr">search</text></g><g transform="translate(1603.563189950517 232.73486867148972) rotate(0 26.056338028169193 25.352112676056322)"><path d="M0.261863823980093 0.42864734306931496 C20.116275147521907 1.0231269906786618, 34.093363320428956 0.3271906684664425, 50.90307417349322 3.3075131811201572 M-0.6281382124871016 -0.8596549648791552 C16.49111765953658 -0.6914703535886726, 32.85118964789327 1.0347908449319878, 51.526324812559324 0.23911154083907604 M51.88362017111285 -0.7566357217729092 C48.81867104889467 8.542739172269334, 51.515070856824664 24.987076377102593, 52.41825416521533 49.26511895105659 M50.5363188425581 -0.3390663880854845 C53.6535371624619 12.599248238983492, 51.74114639393392 22.859704513391335, 50.3137339393179 49.96929465614676 M49.833523063225584 49.7100948040229 C32.38530779831976 54.49007039850339, 21.777298679654166 49.995634015256016, 2.82932972535491 49.279397958968275 M50.473309878496366 48.85945473991751 C37.95786659692401 50.264255357984894, 27.07642790824717 50.60174168467938, 0.23140409775078297 48.811427880157225 M-1.9368894137442112 51.11533450529396 C-3.6772031089894366 34.458885595674644, -2.1628940603367877 18.499400949971346, 2.8405348025262356 3.4554527439177036 M1.4346049148589373 52.51807050787329 C-0.001445820974841805 38.87299183926635, -2.1158209950204045 22.990850716435766, -1.350964454934001 -0.40520411916077137" stroke="#0b7285" stroke-width="2" fill="none"></path></g><g transform="translate(355.5405405405436 323.6891891891903) rotate(0 217.5675675675675 443.9189189189191)"><path d="M0.6413522665169831 0.13434331155207577 C152.6106294697088 1.7500732838443367, 308.05346611608945 2.8991266103396685, 433.1589052122406 1.0798866680769752 M0.5653454236999892 -0.6655025237765052 C156.86470274763653 -0.4609291449335995, 313.3371375358934 -0.4817613197920182, 434.24750199152544 0.02914666256924307 M433.69295564450914 0.5538079991936684 C432.0062936170176 321.9630703075564, 433.03100222183025 646.7727003527356, 435.601505287072 887.9914419891467 M435.76505911134774 0.660255765169859 C433.70986657185915 278.47304850173873, 434.6004980330027 557.0356939909932, 435.4646634557157 887.2994005898167 M436.6901812279673 885.9523726206363 C332.9830923724987 882.1396438975171, 230.87550561553186 884.1705105717251, 0.44220069028821624 887.0467628484245 M434.3355683085021 887.5474387395999 C323.8458610537742 891.0740613639723, 211.9269984385606 889.9301564631401, -0.5113905022758719 887.6770717765294 M1.553825281560421 887.7380040409198 C-4.29969573700549 565.8900964969671, -4.817745310903806 241.2258574710807, 0.7497253879904747 1.1942036882042886 M-0.5168813578784466 887.8578116873433 C1.6302487164836488 587.6748392438014, 1.646922352920111 287.73678791232015, -0.42196298763155937 -0.5753759630024433" stroke="#364fc7" stroke-width="2" fill="none"></path></g><g transform="translate(804.1891891891919 326.39189189189324) rotate(0 431.75675675675666 441.21621621621625)"><path d="M-0.1918259635567665 1.1689131513237954 C323.4736320673563 -7.52942167966551, 648.1052018536404 -7.772180668999616, 862.8657321876366 1.347618605196476 M-0.06976374313235283 0.4343552581965924 C329.45260333844226 1.1780218094285275, 658.3655107337377 -0.11814134421984901, 863.0075646250028 -0.2587972886860371 M864.4843543952782 -0.5397963270545006 C870.5458654941636 308.05844636251896, 870.6472327293474 616.7749767107839, 862.6713174289544 881.585234686692 M863.9711142389555 -0.7553821809589863 C862.0275022662067 314.7659919220401, 861.9565256035709 631.1895869417872, 863.4241754619856 881.9953471369639 M864.9071881717522 882.9018602817848 C534.2351861787859 878.9842192373063, 203.96943265994054 877.2221578798082, -0.34778180271387105 881.8570336311653 M863.9165031521101 882.3452771372691 C553.8932575196579 889.7168760244006, 245.5162650915516 889.5049978438967, -0.47489319965243343 882.0627920098201 M0.19635310024023056 882.1929341286019 C-5.434969110172746 587.5346362524087, -4.861223334949968 290.412301816157, 1.2160767540335655 0.4409939542412758 M-0.5649202458560467 881.9672447152034 C1.430800804062872 571.7255978614143, 2.4540792073450377 262.88905278374807, -0.1619063250720501 0.6197824470698834" stroke="#e67700" stroke-width="2" fill="none"></path></g><g transform="translate(376.94594594594855 526.0675675675695) rotate(0 188.51351351351332 37.162162162162076)"><path d="M1.9219607806752461 1.8449179206631228 C100.01874038442953 -2.384231852546474, 200.45324943339136 -1.7681154349634007, 374.9070755571317 -1.5489258940298611 M0.4835404641216141 -1.1059543315333749 C84.5010420455513 -5.351863579091459, 166.75387445446069 -4.823932803769817, 377.08293404637595 0.809863984708816 M378.34776033209346 1.1173688806593418 C378.3408220947238 15.425714990350606, 377.89147757892334 30.015986301457886, 377.45297385500453 75.20365764532926 M378.8803898573824 -0.32281589694321156 C377.78384102802886 18.281847600271327, 377.48063833933486 37.52103067451223, 378.66896294364415 76.21295536827984 M378.16622649209546 76.30564341860426 C301.8628396059089 69.45911652604885, 222.83981308362442 69.7750462631918, -2.3111772675459012 75.39020304865508 M377.5945492810279 74.23749522059903 C260.2226885493529 74.3365133114677, 144.14531682400695 72.61208405067983, -0.4690754887815319 74.3985171348049 M0.2148742638528347 70.51991476450803 C-3.7277134237307523 49.485053730599866, -2.919207292558572 28.612244851232717, -2.6172977723181248 -3.5807675682008266 M-0.8310714643448591 73.67366893362941 C-0.7748801425552425 51.011133400396, 0.9960558101081791 28.13485084262645, 1.9728862959891558 1.1943936925381422" stroke="#364fc7" stroke-width="2" fill="none"></path></g><g transform="translate(812.0810810810835 1011.2027027027041) rotate(0 420.27027027027 93.24324324324311)"><path d="M-0.37627904266119006 -0.16566829830408097 C169.15376381411934 0.5594455644286959, 337.5312935483413 2.377397577444443, 840.177071871185 0.6038615688681603 M-0.6408387906849384 0.47073484733700754 C262.40481406036446 2.0500656427161097, 525.3013694687869 2.587385946633041, 841.3043038721619 0.419780720025301 M836.5721755306658 3.0526083670556545 C837.5785431378088 41.70098677181911, 838.9333155863485 76.0382041353228, 843.6539489309725 185.82290105833772 M839.187414251217 -0.7591119091957808 C842.0740191045438 56.10759094911243, 842.2141043844854 114.42616949406614, 841.2210123761979 185.5424655315942 M838.963332714462 187.48751387833718 C624.0857627963995 191.21537150883566, 406.6171055370284 193.34095596814046, -0.5399803385138512 185.0955660843766 M840.0399725075301 186.76696507199767 C520.8502307251393 180.47161788610163, 200.89239735949664 180.56916005281153, 0.55400814935565 186.61386403306489 M-3.4587774835526943 187.83857791437867 C5.120601303925785 133.63292010002624, 5.911492832055362 82.50550554128904, 2.2672906555235386 -3.6127672232687473 M1.6006656866520643 188.21984686828318 C-1.21332867886569 129.08482768306038, -0.3547184660628031 74.58393516104556, -1.3156301397830248 1.2175225336104631" stroke="#d9480f" stroke-width="2" fill="none"></path></g><g transform="translate(398.5675675675702 559.8513513513528) rotate(0 12.162162162161621 10.810810810810835)"><path d="M19.461164190150114 3.069899678105223 C21.25398367177471 4.350247465224155, 23.232822324423488 6.561813505320766, 23.957996704357893 8.986654509078223 C24.683171084292297 11.41149551283568, 25.365792341701283 15.773914812482955, 23.812210469756554 17.618945700649967 C22.258628597811825 19.46397658881698, 17.55865149962938 19.432327725476334, 14.63650547268951 20.056839838080293 C11.714359445749642 20.681351950684252, 8.137588497852517 21.948730450460072, 6.279334308117338 21.36601837627371 C4.421080118382158 20.78330630208735, 4.5094332279579215 18.866003613522782, 3.4869803342784316 16.560567392962135 C2.4645274405989417 14.255131172401487, 0.06767694742014374 10.135557289589183, 0.14461694604040076 7.533401052909831 C0.22155694466065778 4.931244816230478, 1.9459531941230401 2.2734682973889138, 3.9486203259999737 0.9476299728860234 C5.951287457876907 -0.37820835161686706, 9.393429275942374 -1.2183032008462402, 12.160619737302003 -0.4216288941075117 C14.927810198661632 0.37504541263121693, 18.848159753084097 4.656153972035252, 20.55176309415775 5.727675813318395 C22.2553664352314 6.799197654601539, 22.63569399114553 6.037052247658069, 22.382239783743906 6.00750215359135 M11.467377121787516 3.1859977349982884 C14.224191228646019 2.539964019156857, 18.613169441791193 -1.2591211729652043, 20.564513321988027 -0.6006207256955882 C22.51585720218486 0.057879721574027876, 22.36222330072587 4.645397777661054, 23.175440402968526 7.137000418615985 C23.988657505211183 9.628603059570917, 26.564114417477096 12.480276701530823, 25.443815935443965 14.348995120034 C24.323517453410833 16.217713538537176, 18.749209774412915 17.652770844463614, 16.453649510769733 18.349310929635045 C14.15808924712655 19.045851014806477, 14.04545631372225 18.635430168198347, 11.670454353584878 18.52823563106258 C9.295452393447507 18.42104109392681, 3.7444876593416785 18.53770026409936, 2.203637749945507 17.706143706820438 C0.6627878405493359 16.874587149541515, 1.9955997390327307 15.851741887130895, 2.4253548972078516 13.538896287389052 C2.8551100553829722 11.22605068764721, 3.428787517849794 6.067358528207606, 4.782168698996232 3.8290701083693843 C6.13554988014267 1.590781688531163, 9.90329057892243 0.5354414858165268, 10.54564198408648 0.10916576835972513 C11.18799338925053 -0.3171099490970765, 8.394302462279606 1.1512957259135987, 8.636277129980533 1.2714158036285745" stroke="#d9480f" stroke-width="2" fill="none"></path></g><g transform="translate(453.972972972977 546.3378378378386) rotate(0 90.54054054054086 18.918918918918962)"><path d="M3.9784418307244778 3.3656109012663364 C54.02078203841863 -2.4322020544897134, 113.52417800172802 0.3797504172433799, 181.12908808877 -2.6537318788468838 M-0.5288504641503096 -0.14075499959290028 C45.56594871860517 5.2577742997657735, 89.29096831456866 3.4487190310012776, 181.56410272968242 -0.062000395730137825 M180.50355498482713 2.23780769482255 C178.51251735115437 10.49248829161801, 181.06455375576405 17.639689792954485, 180.27697376896867 38.77377482896327 M182.09686287296245 0.8028758745640516 C180.03316117314736 15.579862890463053, 180.29268355159203 28.80911850682592, 182.6790799106402 38.839339455791105 M179.80100731541643 39.39709540849208 C134.34540728897505 35.57463618211858, 84.34964231502393 36.89375265531652, -2.344427350908518 37.98518213277339 M182.16025008809993 38.40497561378061 C124.99792877262553 36.9761845980948, 67.96839134692162 37.33645992625413, -1.4808544795960188 39.511253258414854 M-0.9120380915701389 36.84711965566157 C0.32640374371328706 24.47434002664449, -1.7811896734543766 10.764833255293421, -0.32844627276062965 1.5699675716459751 M1.6552687007933855 39.31329383534967 C2.227459046033187 27.03891969054339, 1.1878290502102806 15.798235044638481, 0.882997365668416 -0.8341618198901415" stroke="#d9480f" stroke-width="2" fill="none"></path></g><g transform="translate(680.9999999999964 551.7432432432436) rotate(0 14.189189189189165 13.513513513513544)"><path d="M16.84475640522034 -0.5574589481255536 C19.831078530998795 0.011426187255546894, 22.812094683388732 3.5117278426285083, 24.458182118745846 5.778576664394244 C26.10426955410296 8.04542548615998, 26.78884706407182 10.330075726172337, 26.72128101736302 13.043633982468858 C26.653714970654217 15.757192238765379, 25.692119786431626 19.96790046408945, 24.052785838493044 22.059926202173372 C22.413451890554462 24.151951940257295, 19.589611457914646 24.887060968807422, 16.88527732973153 25.59578841097239 C14.180943201548411 26.304515853137357, 10.518951915889257 27.279245247393803, 7.826781069394336 26.312290855163184 C5.134610222899415 25.345336462932565, 1.7770361476737555 22.477571760594266, 0.732252250762004 19.794062057588686 C-0.3125316461497476 17.110552354583106, 0.6844109039456306 13.04358889364082, 1.5580776879238272 10.211232637129703 C2.431744471902024 7.3788763806185855, 2.9318219928589415 4.125196115444665, 5.974252954631183 2.7999245185219834 C9.016683916403425 1.4746529215993018, 17.37659928074938 2.7598787576800956, 19.812663458557275 2.2596030555936135 C22.248727636365167 1.7593273535071314, 20.821293319072183 -0.3395323361495487, 20.59063802147853 -0.20172969399691 M14.663344219144452 -1.2557330818482626 C17.980483347942954 -0.9623823364648709, 22.429026716067245 2.455700212111571, 24.959676296951805 4.051996646354386 C27.490325877836366 5.648293080597201, 29.515251391086284 6.1899614341954585, 29.84724170445181 8.322045523608624 C30.179232017817338 10.45412961302179, 28.937869346140147 13.531226221794652, 26.951618177144965 16.844501182833383 C24.965367008149784 20.157776143872113, 20.52628041677476 26.22743205948238, 17.929734690480732 28.201695289841005 C15.333188964186702 30.175958520199632, 13.795492353522405 30.198122351655343, 11.372343819380784 28.690080564985152 C8.949195285239163 27.18203877831496, 4.853974693831221 21.67516332330806, 3.390843485631006 19.153444569819854 C1.927712277430791 16.63172581633165, 2.418321098149924 16.21169242971716, 2.593556570179496 13.559768044055918 C2.768792042209068 10.907843658394675, 2.9075483745992567 5.2772889908978495, 4.4422563178084395 3.2418982558523997 C5.976964261017622 1.2065075208069502, 10.109945901473004 2.177005062741027, 11.801804229434595 1.3474236337832224 C13.493662557396185 0.5178422048254179, 14.102937734758738 -2.054785206053588, 14.593406285577975 -1.7355903178944274" stroke="#d9480f" stroke-width="2" fill="none"></path></g><g transform="translate(726.9459459459486 523.3648648648661) rotate(0 14.189189189189165 10.810810810810835)"><path d="M-3.4923697747290134 3.8186040557920933 C8.207211218296058 -2.4921597351345253, 14.663013982561363 -2.9687128176006508, 30.605880482273278 3.754057113081217 M-1.650204686447978 -1.0304195303469896 C6.359020093833464 0.13480107715303102, 11.778616654510413 -2.2402675277931055, 29.74002673119503 0.12763881497085094 M32.02471993692416 -3.4466274343430996 C32.01475628556024 8.017560656912442, 30.62153359593164 19.606447387084, 24.767048938350854 19.13822205535871 M27.354604501428184 1.4111857395619154 C27.386477210886124 7.594096071967826, 28.452918687231186 18.341701762650104, 28.26773508280712 20.759101103840294 M27.653814418392358 22.19470913879377 C17.567419138787333 18.374351431212965, 9.189149927297542 19.286310006461683, -1.3998413123190403 17.881634669227424 M30.062168199719963 19.84008760362667 C17.244179507843313 21.762867630358734, 6.737563572924671 23.706299544211426, -0.8276687543839216 21.223178755340996 M2.6511392556130886 18.764629321021857 C2.030036256019328 15.824993697473364, -3.458851411636617 8.577683665965885, -0.6044641770422459 -2.090290006250143 M1.3844126779586077 20.605999361572685 C-1.0814356539599799 12.998487490405534, 0.5015272762425043 3.7636543759522496, 1.64007637090981 0.12650018744170666" stroke="#d9480f" stroke-width="2" fill="none"></path></g><g transform="translate(820.1891891891919 419.3108108108122) rotate(0 413.5135135135133 55.40540540540542)"><path d="M0.9915997490286828 -0.0885146364569664 C220.40881119722846 -0.34949231486062615, 442.89506408829936 -0.7438199077103576, 826.7372014430323 0.22923500686883927 M-0.5112858645617963 -0.27996826246380807 C237.17819671703344 -1.7767303676822692, 475.20206726859936 -2.037099453947833, 827.7005429555633 -0.712613607198 M830.6889844064572 -1.6553375087678432 C826.1055309650158 28.397467301050966, 827.7776654836391 62.87147953884829, 829.6781662826397 107.95381851021102 M825.6557626605936 -0.30223208852112293 C825.6240055938625 40.93467358227921, 826.5735094328785 77.56360615432466, 828.4114397049852 109.79518855076185 M826.2421523001947 112.12287190753868 C624.5940564095366 111.03394672669272, 421.1926386804997 113.75586364067892, 0.08530821651220322 110.3237300713723 M827.383642249272 110.58420382115892 C655.7820889757692 105.9087059241896, 482.60188656286186 106.11797337356857, 0.12178963497281076 111.31828058335832 M-0.04736388102173805 112.50891001049331 C0.28281404677073674 75.50169157080757, -4.218597272008255 41.61612001222534, -3.039757017046213 3.889030162245035 M-0.46655300073325634 109.83091241579405 C1.109917311853654 79.81762442113582, -0.16050759058546338 47.6254404761602, -0.7026934307068586 0.2854063492268324" stroke="#495057" stroke-width="2" fill="none"></path></g><g transform="translate(843.1621621621653 436.8783783783799) rotate(0 31.75675675675575 26.351351351351127)"><path d="M-1.8565810285508633 -3.0228291787207127 C19.15060809357777 0.0440826503358791, 46.30251538587242 -0.5261305483259251, 60.77892805323609 -1.1747529543936253 M0.3238460998982191 0.37508818693459034 C16.96655083953582 -0.8368185900805964, 31.331909921824785 0.8559904552341924, 62.261491185656276 -0.3697878997772932 M66.78548837885864 -2.5012748278677464 C60.11758333633176 19.543792229472817, 66.23497098872892 44.960681643991116, 65.94807614073761 51.47528153446435 M63.4973238768489 -1.489951340481639 C62.13268257997024 16.63448906501089, 62.288463431811216 31.026540020430176, 64.21277434252806 50.72218016137301 M67.23036278471955 52.733873186380855 C50.817501954908934 51.83930712608527, 39.52323624838933 50.40365355877112, -1.7707666717469692 56.02469080475091 M62.30708176516601 53.03577831734835 C40.49702574581893 53.828879818949105, 14.264482467560718 52.354738638433815, -1.6989910025149584 52.708020303146235 M2.8253322280943394 50.31468504455804 C-0.34079691291962644 32.92104528680717, 0.6792625534423731 14.593319683109044, 0.7818729318678379 -2.211705807596445 M0.7738106828182936 53.318173024551264 C0.5454418972587733 36.72941940678001, -1.9600130602264256 25.750683565498008, 1.5250849705189466 1.3766119200736284" stroke="#495057" stroke-width="2" fill="none"></path></g><g transform="translate(936.4054054054086 432.82432432432574) rotate(0 44.59459459459413 10.810810810810835)"><path d="M-2.1297031678259373 -2.901614125818014 C22.481483999689857 2.135088229149192, 45.406998407195886 -0.4980963230434958, 87.55076598104097 -0.3266804777085781 M1.667687626555562 0.949421463534236 C25.619398522215672 -2.374936371437584, 48.90945971389629 -2.5773288899579394, 88.21752288479365 0.6958205681294203 M87.93750094350435 3.7566925920546055 C92.20086421746969 4.266809896138084, 85.77164604444265 9.913832870387578, 91.21246849473573 23.336979703826728 M89.24952008862056 0.23284649662673473 C89.23378068515686 6.75838381308762, 89.13206267663864 16.32298172219987, 87.21285971540965 22.221592854557457 M88.49291073258973 19.564243154449287 C57.31432106371003 17.755270838485842, 20.995712931695564 23.482277631507998, -3.5308117903769016 17.805688338203254 M88.43057164091624 22.393948983250084 C61.02841697482178 21.723126636667057, 29.318738581310328 22.79870729319553, 1.8331114370375872 19.743798862991753 M-3.5353732146322727 21.621178107185187 C3.01339869875763 19.243139895333666, -0.6237891397967523 10.475884306773162, -2.5952521599829197 -3.4170145355165005 M-0.5881689470261335 22.118379723129692 C-0.8869234864675513 13.492151555328386, -1.7362801973783484 7.0098423786159465, -1.574776677414775 -0.04499548859894276" stroke="#495057" stroke-width="2" fill="none"></path></g><g transform="translate(1045.8648648648668 431.47297297297405) rotate(0 39.86486486486501 10.810810810810722)"><path d="M3.9819867573678493 -1.5172350965440273 C17.857490408335043 3.3252349329004867, 29.27717969772997 -1.7444310951222795, 78.53239937036051 3.6662228740751743 M-0.3421053569763899 -1.7676866073161364 C16.432782110405793 2.8527297977911923, 34.71331723708973 1.034135878514001, 80.2299618022771 -1.2976260799914598 M77.31235332696451 -1.176337894052267 C80.86285199577371 2.660087389821099, 77.9794292634205 5.60082557042298, 79.24423845021738 18.472068266791894 M80.4986991184087 -1.078639091923833 C80.74704668313495 7.696291313934515, 78.3069707492017 13.22872713666298, 81.40594934395267 22.418619762954904 M76.41106374471201 18.295858817023827 C54.323960745380134 20.2287261663003, 29.631385181351 20.52486671786738, 3.921076651662588 23.91267402641256 M78.32475685051395 22.175768982467844 C58.27268552984056 18.785791072365015, 34.74054409503143 22.033378335949152, 0.7042140681296587 22.738904308376505 M0.702312346547842 18.94090183250387 C-0.8130655837421499 11.851368337164738, 0.44539553400229587 8.160337191679123, 2.5989115200936794 -3.942013558000326 M-1.5047402661293745 22.304235290584757 C-1.5798664392551052 11.812851889864305, 1.2977265416065586 3.961176054451471, 1.523485453799367 0.16634034924209118" stroke="#495057" stroke-width="2" fill="none"></path></g><g transform="translate(929.6486486486501 474.7162162162176) rotate(0 104.05405405405418 19.594594594594582)"><path d="M0.4802818794656689 1.0002335251554126 C66.31070797852334 1.0450977269639246, 128.57349544664143 0.7057467099320941, 209.31192989999505 0.49477302818655716 M1.1627804654131724 1.5121333106255324 C54.317758271409296 -0.373998880119357, 105.45888517222653 2.1143705362508434, 208.00133415916613 1.5626124474215526 M208.55651141068847 -3.124181155115366 C208.94342191640715 6.608917663100398, 206.62640328828672 17.717134736931396, 206.4588490810147 35.806692351662605 M208.8849441438815 -1.3477171938866377 C208.9733382300602 16.25166053332488, 207.35855977098808 28.46172742374441, 209.79848230182142 39.241893912741034 M211.47826750749056 37.12347676691782 C146.5753524769579 37.51259908012845, 80.80334918804424 36.99321981211635, -2.041389438825678 38.107092499693955 M208.6113660889973 39.42163894959353 C127.32845073577134 38.11746454894101, 44.48129859229075 39.490763231390055, -1.4426687742065614 40.37567811287778 M2.640745345503092 38.60776196893403 C-1.329016913257137 23.396649482206904, 2.1763140069622846 16.059434547970014, -2.153930839151144 3.6044633351266384 M0.45309352688491344 38.466825450846045 C-0.7595845899116753 29.088928816512812, 0.7330778995025398 18.574284821950087, 1.8334857802838087 0.19210007973015308" stroke="#495057" stroke-width="2" fill="none"></path></g><g transform="translate(1178.2972972973002 454.4459459459474) rotate(0 20.270270270269975 16.891891891891873)"><path d="M3.6044633351266384 -0.9503501020371914 C11.263719817321247 -1.5735246469140922, 28.13317756294359 -1.0081198741556083, 38.10051341908547 1.4508202709257603 M0.19210007973015308 0.8629486542195082 C12.10931673937937 -1.4212689604106679, 23.433548245830345 1.051488438671516, 41.01684206346545 -0.4491868633776903 M44.12802596943948 3.509138409048319 C38.36599932054653 14.263658221534165, 37.33285734991207 27.800225305748526, 40.298253377848596 34.34015350939853 M38.66570633272204 -0.12204557843506336 C41.100565867321734 8.94460090655027, 40.6499003337791 21.445510620905722, 39.69743775943789 32.3694372061841 M39.072012266093225 34.45544796588047 C26.12534340788141 36.00344838851405, 15.364217609972332 32.28231599086238, 0.6755722723901272 36.33294432761295 M39.44168471912417 34.91442822257204 C27.1533015273709 34.456218713642734, 11.723715408981889 32.665079170586246, 0.5361795146018267 35.70513312855883 M2.923116561025381 31.543301039954258 C1.4099442235168977 21.05239352843143, 3.4835298529800935 6.512722741762115, -0.04741073027253151 -0.5633609853684902 M1.8479771334677935 33.48799340764208 C2.4903334266682324 25.13913653879046, 1.5311649329205212 16.669245047746458, 1.52216842956841 0.5922636967152357" stroke="#495057" stroke-width="2" fill="none"></path></g><g transform="translate(944.2432432432397 87.7432432432413) rotate(0 30 14)"><text x="30" y="21" font-family="Virgil, Segoe UI Emoji" font-size="20px" fill="#495057" text-anchor="middle" style="white-space: pre;" direction="ltr">主窗体</text></g><g><g stroke-opacity="0.5" fill-opacity="0.5" transform="translate(450.51991772626207 137.70694262530492) rotate(0 -12.99842589794116 49.63753455408619)"><path d="M-2.102025869861245 -0.49076407216489315 C-6.987029277292519 16.58110717360164, -23.577094131249336 85.04594726731307, -27.949201954574164 102.50055891530128 M1.9523501586914067 -3.2254898071289064 C-2.140132697853077 12.93922662820901, -18.359859045906013 80.62741854143567, -22.455154402450496 97.82994747677358" stroke="#495057" stroke-width="2" fill="none"></path></g><g stroke-opacity="0.5" fill-opacity="0.5" transform="translate(450.51991772626207 137.70694262530492) rotate(0 -12.99842589794116 49.63753455408619)"><path d="M-26.577693447884467 65.6363661618028 C-23.77423688256302 75.5268481812562, -20.101022447793756 85.91839199186622, -22.105262147531683 99.47898466282996 M-24.10436005372956 67.9126354132835 C-26.24671064117152 78.33592989412975, -25.555991174519434 87.56707523446693, -21.99295700740891 96.5604035291216" stroke="#495057" stroke-width="2" fill="none"></path></g><g stroke-opacity="0.5" fill-opacity="0.5" transform="translate(450.51991772626207 137.70694262530492) rotate(0 -12.99842589794116 49.63753455408619)"><path d="M-6.619420088158183 70.40997348585863 C-10.775794803300462 78.33670993328741, -14.06004764132976 87.06417107844358, -22.105262147531683 99.47898466282996 M-4.146086694003277 72.68624273733933 C-12.589457614204896 81.25517487162139, -18.222521116754926 88.97380176141777, -21.99295700740891 96.5604035291216" stroke="#495057" stroke-width="2" fill="none"></path></g></g><g stroke-opacity="0.5" fill-opacity="0.5" transform="translate(411.27027027026634 97.20270270270385) rotate(0 40 14)"><text x="40" y="21" font-family="Virgil, Segoe UI Emoji" font-size="20px" fill="#495057" text-anchor="middle" style="white-space: pre;" direction="ltr">上下居中</text></g><g stroke-opacity="0.5" fill-opacity="0.5" transform="translate(59.70270270274341 447.4864864864878) rotate(0 53 12.5)"><text x="53" y="18" font-family="Virgil, Segoe UI Emoji" font-size="20px" fill="#495057" text-anchor="middle" style="white-space: pre;" direction="ltr">thread list</text></g><g><g stroke-opacity="0.5" fill-opacity="0.5" transform="translate(181.6216216216235 457.2837837837849) rotate(0 109.87334171920065 -9.156467087556678)"><path d="M2.597679909691214 -2.5930792953819033 C38.787696335399474 -5.575058806622117, 183.4173973221795 -17.80485211304868, 219.18335864840046 -20.483872309306797 M0.563324790000916 2.1709381341934204 C36.25599962975514 -0.3334036307127177, 181.62442039380136 -15.260828521147817, 217.3087016788681 -18.290448606366454" stroke="#495057" stroke-width="2" fill="none"></path></g><g stroke-opacity="0.5" fill-opacity="0.5" transform="translate(181.6216216216235 457.2837837837849) rotate(0 109.87334171920065 -9.156467087556678)"><path d="M186.50584521357584 -4.462833328867136 C196.7768522170913 -12.6090727070685, 209.47910625224404 -14.315183386338852, 219.1284424473901 -17.583811279738484 M190.33000791099536 -4.305266191014825 C195.35852675738866 -10.900185604215892, 202.3116001622763 -11.780975664436372, 216.17948086721793 -18.908247771093784" stroke="#495057" stroke-width="2" fill="none"></path></g><g stroke-opacity="0.5" fill-opacity="0.5" transform="translate(181.6216216216235 457.2837837837849) rotate(0 109.87334171920065 -9.156467087556678)"><path d="M184.57208688582236 -24.892727629026496 C195.18609043978046 -25.455036905765912, 208.60958523121747 -19.54133687530144, 219.1284424473901 -17.583811279738484 M188.39624958324188 -24.735160491174184 C193.6462028659937 -26.212542141397453, 201.0870858400782 -21.939690304247954, 216.17948086721793 -18.908247771093784" stroke="#495057" stroke-width="2" fill="none"></path></g></g><g transform="translate(373.51351351351514 343.77027027027157) rotate(0 46.62162162162167 12.837837837837924)"><path d="M2.7979922257363796 -2.1172714792191982 C28.18409395190211 3.934755365565622, 65.54773092587058 0.19686881752332486, 89.27807893573845 -2.4462875686585903 M0.32074800319969654 -1.1731375474482775 C35.03289835399172 1.5003832166611764, 72.840662184398 2.881927389425001, 91.49176645062471 -1.536256494000554 M90.4955939274987 0.21987969055771828 C91.22566389133912 8.143534318090943, 93.13582788994295 12.554558482977681, 96.69105174362267 22.83979748602269 M93.06662559292818 -1.5105983633548021 C94.9348662329738 5.940034682459767, 93.38138316403078 11.743754199831953, 93.87974816344286 26.404678626388886 M94.83645369827354 27.537550438598373 C59.89459069765405 24.065191466487313, 20.952479741712295 27.78442009178486, 2.4048753939568996 23.415817369178512 M93.56854468367601 24.30150680097995 C59.21727632356159 26.453096886366982, 25.014966169623932 29.109074195117135, 1.4928265530616045 25.90621851238666 M2.2682033739984035 26.12074195261357 C3.404485212764826 17.726139030067014, 3.232411967716303 7.191220097998972, 0.2560119591653347 -2.046719130128622 M-0.7635215800255537 25.725486262173035 C0.6385960572625753 17.8093937101045, 0.07343619998947343 7.464527278031088, -0.06746062450110912 -0.39180529303848743" stroke="#364fc7" stroke-width="2" fill="none"></path></g><g transform="translate(389.6351351351368 344.1081081081095) rotate(0 30.5 12.5)"><text x="30.5" y="18" font-family="Virgil, Segoe UI Emoji" font-size="20px" fill="#364fc7" text-anchor="middle" style="white-space: pre;" direction="ltr">recent</text></g><g transform="translate(723.5135135135151 342.4189189189203) rotate(0 23.648648648649214 12.162162162162076)"><path d="M-0.7836105860769749 -1.6666005216538906 C13.34095797453713 2.1610846858018564, 29.16303248607897 2.2666200737947153, 47.12956612768721 -0.551288302987814 M-1.635522810742259 -0.32159733958542347 C10.535679879900618 -1.8211295413155555, 20.690557573595253 -0.745146434225559, 46.046699196353075 0.37906926684081554 M49.234471256166216 -2.6758314929902554 C50.25315217940703 1.216953595294708, 48.144235062288196 6.607606267808187, 45.58362322512221 23.56318630610349 M49.233039051547166 0.1902193408459425 C44.961630438531095 10.765631041716015, 48.13259271260565 17.472083315706204, 49.17652890111458 24.71307213377895 M46.44258719149184 22.612806934460423 C29.506718702740883 26.307519533520246, 9.181197961792662 23.90581462610295, -0.5443803109228611 26.54233576689603 M46.64184519673836 24.99597818922939 C32.5840488694666 23.34356671216806, 15.492959771809097 25.219129439619383, -0.28199818544089794 23.989914906739614 M-0.9538184441626072 22.55420615111234 C2.840856436086263 14.208427428242619, 1.6531200440650842 7.592205742726414, -0.3020617999136448 3.1748563684523106 M-1.6905374806374311 24.389596474885366 C-0.8615474106894985 19.366352943552375, -0.8094396593200222 12.887602133777003, 0.06435755081474781 -1.396664621308446" stroke="#364fc7" stroke-width="2" fill="none"></path></g><g transform="translate(740.6621621621634 342.0810810810824) rotate(0 6.5 12.5)"><text x="6.5" y="18" font-family="Virgil, Segoe UI Emoji" font-size="20px" fill="#364fc7" text-anchor="middle" style="white-space: pre;" direction="ltr">+</text></g><g transform="translate(10 888.3648648648652) rotate(0 87.83783783783838 104.05405405405395)"><path d="M-1.5488516129553318 3.383791033178568 C72.59277451415967 -5.632209787850058, 140.7157200687649 -3.7860547404333706, 172.91006569232195 -2.759506519883871 M1.1771962363272905 0.4395237546414137 C69.90998560431885 -1.552162926140677, 140.2804416745809 -2.42366860384072, 176.18789847421795 1.5067083816975355 M175.34090045370075 1.9931393472862304 C171.64332690007558 42.299904576640856, 170.84441993976603 87.74639555185725, 176.68403839970279 205.52628994683363 M176.59906190017904 1.5975391660585139 C176.02836565309048 76.5355905677906, 174.74478510270876 151.87315298927717, 175.57645254761456 208.935120228754 M178.9151682075426 205.65211380383835 C105.20211775404643 203.9331599294231, 33.453541024915495 205.96567819705464, 3.812155243009329 208.65384341142044 M177.5562359266296 208.63198185264037 C126.4450829364367 205.95577813936626, 78.10697262507684 203.52728469921504, -1.0953224580734968 207.79773444234297 M2.3929435534926733 208.68001680696784 C1.2281280990249592 127.55091703936718, 0.7036764696080229 39.183358034190235, -3.162444984601095 1.0194343746499621 M0.807140064984476 207.902398595358 C0.42845136739650935 146.29348210787032, 2.394140993593001 83.1547938350867, 0.9274520920279443 -0.7058763137105395" stroke="#364fc7" stroke-width="2" fill="none"></path></g><g transform="translate(10 892.4189189189203) rotate(0 87.16216216216253 24.324324324324266)"><path d="M-1.4829771555960178 -0.7902777753770351 C54.726355199098236 -5.765874401867599, 117.60682631722023 -2.299346582234115, 172.24583132152293 -2.9357382617890835 M1.5601001102477312 -0.40757823176681995 C58.35229290108145 4.060143290918229, 111.88353178871692 0.740542291562913, 172.62577919808064 1.5282110553234816 M170.75185949687693 1.5503142513334751 C177.3629234692945 18.52953530827886, 176.29975220178503 33.45486613695276, 176.08199901466105 45.363625857173474 M173.26976065483723 -0.8428898472338915 C175.22247096206564 9.57251643817366, 174.5348669519605 20.777654702951327, 174.96567665186558 47.36685135693756 M176.89677352790568 47.34415468865541 C135.06812441970808 44.40464972415171, 96.38595587181321 47.44401537337504, -0.6626006402075291 48.25314519101289 M174.42379079905186 49.9948501858255 C135.10977456172532 51.28862420985515, 100.23658664776306 52.40043876836116, 1.7307176310569048 48.119417396499784 M-0.8115407265722752 50.7662362783542 C2.305502972490078 30.827759242541006, -0.7603156949217261 14.504581431581329, -1.9502809084951878 1.990266028791666 M-1.5248675625771284 49.766535488083036 C0.9151893952307684 34.69335241842302, -2.351230075079443 18.604603476570617, 0.602570803835988 -1.3047280330210924" stroke="#364fc7" stroke-width="2" fill="none"></path></g><g transform="translate(11.351351351349876 943.7702702702675) rotate(0 87.16216216216253 24.324324324324266)"><path d="M-1.5319620408117771 2.660327974706888 C53.85593567348133 6.086060424989755, 105.27007469026468 5.581080218500192, 173.36631436233256 3.9011246599256992 M0.1846968848258257 -0.49667257256805897 C49.87876464398851 -2.7815531865014087, 98.5161631679217 -1.7406748309983264, 175.5585558280054 1.5889141540974379 M175.92272705917094 -3.501586254686117 C173.798061211569 12.090598887889746, 172.25870509908884 20.717150638131624, 172.08603079204295 51.98155185872224 M172.73422978964481 0.5467164497822523 C173.27974197384347 16.57994113263443, 175.79681363817681 35.86755843938798, 174.6945634349886 48.46075948806015 M171.55958826427195 48.0742938249698 C139.27097703373067 49.86848290075813, 97.36676140255462 49.56158466448341, 1.5009808503091335 46.49527392083314 M173.6067333683077 49.815610733940275 C127.21539150256515 49.51132419919332, 84.71525637815564 49.77060541724523, 1.2261125165969133 50.325937298252256 M3.4629721604287624 49.777804705440076 C1.515958725197895 30.25126881454434, 1.7119923221903877 21.420476484439618, 0.12150752171874046 1.2895808853209019 M0.17507139034569263 47.519732025577696 C-1.0103930120633282 33.21458708379107, 2.177985262377437 15.174943164343325, 0.4422936160117388 1.9551385026425123" stroke="#364fc7" stroke-width="2" fill="none"></path></g><g transform="translate(11.351351351349876 992.4189189189281) rotate(0 87.16216216216253 24.324324324324266)"><path d="M3.31830620393157 1.9587699808180332 C48.38836272103683 2.152491827344373, 98.70621815781982 -1.6527546450143307, 172.77283794765208 -3.7988883815705776 M-1.5731808822602034 0.9856324177235365 C53.14494889423374 -0.7893851345304386, 104.59113843940445 -0.357010120702161, 174.72472934570942 -0.049212755635380745 M175.81634170894358 -2.828827079385519 C176.85471988549983 19.600731864370168, 175.28817642560756 32.67317792360437, 175.68323964957926 44.85031399422792 M172.39001207199726 0.8132678847759962 C175.66356021201162 16.762989653173694, 174.8517878059104 37.43921097906651, 174.81498538103733 49.34851720662323 M177.2190834987614 45.56875786477235 C130.23954600234242 47.492359560209444, 78.5143992224762 52.323427479940584, -1.9768720902502537 47.05598017865327 M176.10885392275486 49.67689445347992 C119.17159816499448 51.64953158083487, 66.64855940247335 49.88002137127447, -0.4911482613533735 48.430924859954985 M-1.8461490906774998 45.18589255505708 C1.8305601207791136 35.86280919651718, 3.651017698484497 28.8205524065808, -1.2791855372488499 -3.5650685392320156 M-1.7840259354561567 47.93271824450699 C1.2519028832682888 36.60420850427762, -1.8569467017880161 24.462525469980875, -1.5823154132813215 0.05268549732863903" stroke="#364fc7" stroke-width="2" fill="none"></path></g><g transform="translate(11.351351351349876 1043.770270270282) rotate(0 87.16216216216253 24.324324324324266)"><path d="M-2.0457578264176846 1.223960991948843 C38.57078379349849 -0.4465989491373703, 70.20875256795568 1.1755020001500442, 175.46851708327267 -0.6713328398764133 M0.9999259691685438 -0.5735422652214766 C59.95789441332952 2.596953395879965, 121.89742833295436 2.1577777305013943, 173.94005132985149 -1.2417162340134382 M173.57523610030148 0.7623381577432156 C172.3745650099346 21.137240437035583, 172.40059066282004 30.729912339130685, 176.1590503636453 44.709292675494225 M175.990550769091 -1.583284704014659 C176.22394008939605 19.744900330448026, 173.64970614021163 37.56420665702497, 173.35580058169398 49.03906810389367 M177.34813632403348 51.07768657350448 C101.22881843736188 44.58534716057101, 33.1516796583563 50.67941008495608, 3.7091315425932407 52.13734116697219 M173.4708294398788 49.597081543072136 C112.16657076979958 46.5823555571353, 45.80029847362172 45.96768474405165, 0.6251563411206007 49.57039088116494 M-1.9188296161592007 48.82424702787307 C-3.355081942033124 31.889500228939756, 4.290900681067157 13.069739849684176, -3.8892069421708584 0.09169447049498558 M0.7934841495007277 46.922029198273094 C-1.039004410591884 29.4530680483156, 0.019227002772526314 14.091072917034865, 1.8256612997502089 -1.503399757668376" stroke="#364fc7" stroke-width="2" fill="none"></path></g><g transform="translate(29.16216216216344 904.2432432432445) rotate(0 68 12.5)"><text x="68" y="18" font-family="Virgil, Segoe UI Emoji" font-size="20px" fill="#364fc7" text-anchor="middle" style="white-space: pre;" direction="ltr">Mark as read</text></g><g transform="translate(14.513513513513317 955.5945945945925) rotate(0 84 12.5)"><text x="84" y="18" font-family="Virgil, Segoe UI Emoji" font-size="20px" fill="#364fc7" text-anchor="middle" style="white-space: pre;" direction="ltr">Mute Notification</text></g><g transform="translate(76.01351351351332 1004.2432432432513) rotate(0 22.5 12.5)"><text x="22.5" y="18" font-family="Virgil, Segoe UI Emoji" font-size="20px" fill="#364fc7" text-anchor="middle" style="white-space: pre;" direction="ltr">Unpin</text></g><g transform="translate(37.51351351351332 1055.5945945946053) rotate(0 61 12.5)"><text x="61" y="18" font-family="Virgil, Segoe UI Emoji" font-size="20px" fill="#364fc7" text-anchor="middle" style="white-space: pre;" direction="ltr">Delete chat</text></g><g stroke-opacity="0.5" fill-opacity="0.5" transform="translate(230.06756756753202 611.0000000000027) rotate(0 47.5 12.5)"><text x="47.5" y="18" font-family="Virgil, Segoe UI Emoji" font-size="20px" fill="#495057" text-anchor="middle" style="white-space: pre;" direction="ltr">right click</text></g><g><g stroke-opacity="0.5" fill-opacity="0.5" transform="translate(377.5675675675702 600.5270270270285) rotate(0 -92.40882516023066 133.76740177176586)"><path d="M1.756123385205865 2.6319272723048925 C-29.568786792097974 46.78825413297759, -155.7898274006371 222.6523546507531, -186.57377370566718 265.94242670490723 M-0.7350767049193383 1.5923768386244772 C-31.24765023312319 44.7977590713764, -150.48067722366991 217.76054703367987, -180.95275789298705 261.51672058723256" stroke="#495057" stroke-width="2" fill="none"></path></g><g stroke-opacity="0.5" fill-opacity="0.5" transform="translate(377.5675675675702 600.5270270270285) rotate(0 -92.40882516023066 133.76740177176586)"><path d="M-169.57563789067163 230.44466718163906 C-174.24738540438904 245.85123269610372, -182.00689553585394 253.25428694707168, -178.88584958933882 265.24744599110767 M-173.6800691678126 233.4424883096349 C-174.01578253051994 239.07507885920816, -177.8595103221911 248.5050443195854, -182.22888392195694 261.6371761819659" stroke="#495057" stroke-width="2" fill="none"></path></g><g stroke-opacity="0.5" fill-opacity="0.5" transform="translate(377.5675675675702 600.5270270270285) rotate(0 -92.40882516023066 133.76740177176586)"><path d="M-152.7060545960142 242.12957889933955 C-163.35134462346912 253.66817906325397, -177.00056090318185 256.9916603227972, -178.88584958933882 265.24744599110767 M-156.8104858731552 245.1274000273354 C-161.23085404789938 247.7902650133218, -169.22701730748943 254.34399808499222, -182.22888392195694 261.6371761819659" stroke="#495057" stroke-width="2" fill="none"></path></g></g><g stroke-opacity="0.5" fill-opacity="0.5" transform="translate(818.1081081081102 342.4189189189203) rotate(0 416.2162162162167 21.62162162162167)"><path d="M-0.08380494266748428 -0.5483875021338463 C235.94231316270083 -5.240764521465115, 472.3043184140653 -7.382392834529691, 831.8855935751999 0.3415224805474282 M-0.19182273074984552 -0.2750360257923603 C210.29120497532418 -7.023975179988798, 419.3482446748064 -7.40938775380319, 832.8199145160222 0.14765691682696344 M832.422285095563 -1.822098072618246 C830.3570422662079 11.05027172019758, 836.4699993861497 20.127906558179422, 834.5112785257006 47.2230113443693 M833.7956836733574 1.500650642439723 C833.9206118698971 17.21218880663655, 832.7553257461445 32.319232875984746, 832.4745689544434 45.21529718644524 M832.5579837023819 42.92859492644275 C539.2307175484063 38.78123693784356, 249.70760025917698 39.76024766286492, 1.5275045379996302 43.01479702338183 M831.7345163426901 43.73567524075115 C589.9200043897176 36.05213029012093, 345.5961548207784 36.32712573632607, 0.06366564109921456 42.84740474342907 M2.253164764493704 45.75959011882151 C2.535182901632947 28.679236864419472, -3.1887358939526855 22.153025608308454, 2.120592948049307 3.142195288091898 M1.6160575468093157 43.9570852757206 C2.227044956355885 32.02940230811576, -0.965176744789287 22.66458364409979, -0.4928951542824507 -0.5419923681765795" stroke="#495057" stroke-width="2" fill="none"></path></g><g stroke-opacity="0.5" fill-opacity="0.5" transform="translate(841.8378378378402 353.22972972973116) rotate(0 11.486486486486683 10.135135135135101)"><path d="M3.8825107775628567 -3.32225626334548 C4.226757784575509 0.7284311044810231, 8.423662109703395 0.15467190629224134, 21.748687843515654 -1.4674840532243252 M-0.18325462751090527 -1.8841245789080858 C8.0816926002957 0.9444119770935625, 16.554496960060312 1.4578512151650043, 22.434448734580656 0.8964885454624891 M20.841660598947783 -0.5796065889298916 C21.139993274458952 3.6584503888026543, 19.388776505240507 11.131801708576216, 20.17406986160495 18.41818140537748 M24.258346573173185 -1.7309447545558214 C24.145461767333376 5.43068580800112, 20.82931581081711 8.724760752271928, 23.129183605968137 20.713735560861323 M20.252546767427702 22.57690237553129 C17.227426293910458 21.44567388832261, 11.366242435383448 24.26384431659867, 2.665812250226736 21.693400965046976 M24.546022728740354 20.955030898538325 C14.194812512856153 21.451305950941393, 10.397772905492458 18.676067973436663, 1.629282983019948 19.389143626180385 M-0.761417631059885 17.87980137856016 C1.9958816386910296 11.452561405688675, 3.231519422695241 11.718867727983206, -3.6793822087347507 0.5414021648466587 M0.4706063587218523 20.9098121328027 C-1.0440517516202608 16.15503506727411, -1.7169672699041048 8.770373281896886, -1.1858965437859297 -0.41206509061157703" stroke="#495057" stroke-width="2" fill="none"></path></g><g stroke-opacity="0.5" fill-opacity="0.5" transform="translate(1544.5405405405436 350.52702702702845) rotate(0 14.189189189189165 11.486486486486456)"><path d="M17.480573088453266 -1.9151623859778906 C18.900196038347936 1.934900506970328, 23.31573409249932 4.499178932351181, 30.369428674105038 9.48495151334164 M16.17458074271087 1.1550156612576052 C16.707770437098493 4.710887457544533, 22.066218734754802 4.775426363794776, 27.27642450267954 12.14036831590121 M31.65428863161614 9.646449466058442 C25.900619609180296 14.923052292876484, 20.235505352414737 17.87230498171295, 18.078715139395168 25.27927476940433 M27.026256210551672 13.360908847685296 C24.478104490807393 13.824965435615553, 20.72858169699791 20.155804329080862, 13.931413895286985 24.382531455688433 M12.978035547217454 22.265421633669423 C9.03432166677176 21.48544353428321, 4.059547372834661 19.82520349614848, 1.727418760642088 8.580914726159067 M14.541840071827169 23.410286407565806 C10.999690325570032 19.178823441016416, 6.598581072340328 15.113101480647936, -1.2457034537163578 10.897999397960985 M-1.5478843622768625 10.850050289992314 C2.2271675282574046 10.670192026630694, 6.129064595575915 8.074597510045354, 18.161932247448178 -0.36030626826702594 M-0.014729898513620832 11.719859204058512 C6.468105027172321 6.965293821924553, 11.373597706176104 3.9489524080940703, 13.981100505218796 0.38037998571507936" stroke="#495057" stroke-width="2" fill="none"></path></g><g stroke-opacity="0.5" fill-opacity="0.5" transform="translate(1594.5405405405181 349.1756756756756) rotate(0 14.189189189189165 11.486486486486456)"><path d="M12.360279133735078 -2.808780801089869 C22.81754096380643 5.6342683193120155, 21.44558204236148 11.571161713763322, 30.430195432464494 9.780212316129923 M13.582529289061796 -0.9776130477279794 C19.655537822645737 3.6191725732300313, 25.854078953768944 7.647674242223573, 29.68661101495842 12.835201191084153 M31.530725673769087 11.146902543360442 C26.439454124744472 15.256949707156851, 21.674750356623864 18.101668611491874, 12.668153918411203 20.653463162652585 M27.825775262347623 11.302872993352121 C24.595010156966367 13.98333754919059, 22.760607372830716 16.494406421846893, 16.20894268375543 24.39702532249376 M13.083697992992775 22.944470562427064 C9.889300698790567 21.41173778773196, 5.211142358928304 16.239221866834278, 2.483004060002262 10.02842554017905 M15.898956898331187 24.017755520776035 C10.245139655536043 19.228272646386483, 4.058012284136478 17.55851869213226, 1.046482150658913 12.4239191377116 M0.6217270994823902 10.664893419207104 C1.680802045230121 8.87517301619112, 6.5805134193844586 1.0689749432799989, 12.837437937045234 2.381726825679219 M-0.36961405351431864 12.02539799321272 C3.6539970746897286 7.450846366905739, 7.960996859971134 7.950599598890298, 14.068375449590999 -1.3071533020322066" stroke="#495057" stroke-width="2" fill="none"></path></g><g stroke-opacity="0.5" fill-opacity="0.5" transform="translate(836.432432432437 1035.6621621621637) rotate(0 19.594594594594128 17.567567567567494)"><path d="M16.204863373190165 -3.0401127375662327 C28.637290271619005 8.29887926476831, 31.47590983064034 13.324174377609141, 39.4041287275777 17.346457596868277 M18.60462730936706 -0.03514954261481762 C23.833801871723214 5.872724378551986, 30.16449623603131 7.180605714652386, 40.86079131726183 19.906324239447713 M42.90016048874713 14.29560100659728 C34.46853228905651 19.158518117142663, 25.698873830839027 27.046260556150656, 21.208050791174173 36.95487590365701 M41.05623399380602 18.119763704016805 C34.043587280327976 21.337656397382517, 25.10580035587688 26.898125909001962, 20.637875137850642 34.00591432348483 M18.654613558202982 35.98620315127664 C16.827608141320177 28.830427208537678, 6.537350927682944 27.42975024087599, -2.063818272203207 19.42818247899413 M21.674702702090144 34.70926772848361 C10.874094189994441 28.522900577407942, 5.763210743584143 21.36391861906926, 1.374669311568141 18.66233870573342 M2.8401114381849766 17.019232627004385 C7.0226945719495415 9.050254384987056, 9.245189827941358 7.3472138285636905, 21.113809887319803 -3.2829291857779026 M-0.7114737052470446 18.452774019911885 C6.657215464450419 10.99919683020562, 13.453714867644011 4.31142450980842, 18.03158181719482 -1.5141021888703108" stroke="#495057" stroke-width="2" fill="none"></path></g><g stroke-opacity="0.5" fill-opacity="0.5" transform="translate(898.594594594615 1035.6621621621637) rotate(0 19.594594594594128 17.567567567567494)"><path d="M16.470397178083658 -1.4578167237341404 C22.310068046726254 1.371088700630791, 32.80261233753704 10.295844921917743, 37.3169670673833 19.96595835313201 M18.473715303465724 0.7114135939627886 C27.740997508626993 6.484929668701967, 34.971170492903525 12.262860833093306, 38.25647728804506 19.063819916918874 M41.93546586956836 15.521638628095388 C32.70616344195699 22.947675238388584, 31.10513417011842 27.00824035532463, 20.09805816784501 32.50095518164926 M37.85723917845644 19.441031964495778 C34.74500504343221 22.342885636266402, 29.597111870995356 23.899583457304566, 18.479943631216884 36.49415760532611 M20.214939538389444 34.481592732003264 C9.502578360487682 32.26711427029213, 5.369167372112138 19.941931100854163, -0.07029908522963524 16.592856880277395 M21.671602128073573 37.0414593745827 C12.043786969065064 29.67270189305708, 2.1177654806816513 23.302707513451946, -1.8521994967013597 18.478094728663564 M1.2080507911741734 19.819740768522024 C4.9870732662454245 12.509157059900463, 5.783383689187467 14.453270423412324, 20.23952740803361 2.227513190358877 M0.6378751378506422 16.870779188349843 C3.837896896935999 12.834008785896005, 10.210530206970871 10.214650801941755, 20.425534008070827 0.9521035868674517" stroke="#495057" stroke-width="2" fill="none"></path></g><g><g stroke-opacity="0.5" fill-opacity="0.5" transform="translate(877.9100125739551 1242.5105212401406) rotate(0 18.114819410809105 -82.25569491977541)"><path d="M0.28894590996205816 -1.8919802214950323 C7.1842535133266825 -28.81879103879977, 33.506868198565826 -136.7658511842712, 39.22836077405773 -164.11787244570843 M-2.9987219524383546 3.2526338481903077 C3.9547805894269903 -24.172967267417395, 31.18578202886103 -140.12968233775837, 38.414118555101375 -167.76402368774106" stroke="#495057" stroke-width="2" fill="none"></path></g><g stroke-opacity="0.5" fill-opacity="0.5" transform="translate(877.9100125739551 1242.5105212401406) rotate(0 18.114819410809105 -82.25569491977541)"><path d="M38.93511251038875 -134.1909893045581 C45.05317951177828 -147.43529808554925, 41.638204145782595 -154.19461851414204, 34.66660847580693 -167.8230613098054 M39.686585614969985 -139.83275806367462 C43.15312581302421 -146.5462081818669, 41.57771323326023 -154.17972802132226, 38.6692397582408 -168.8084269445895" stroke="#495057" stroke-width="2" fill="none"></path></g><g stroke-opacity="0.5" fill-opacity="0.5" transform="translate(877.9100125739551 1242.5105212401406) rotate(0 18.114819410809105 -82.25569491977541)"><path d="M19.00891814800597 -139.0967798237695 C29.489831874963546 -151.28603023859162, 30.52730425851095 -156.9491666412859, 34.66660847580693 -167.8230613098054 M19.76039125258721 -144.73854858288604 C28.21253272747615 -150.28931238457577, 31.715781702526723 -156.67247557023236, 38.6692397582408 -168.8084269445895" stroke="#495057" stroke-width="2" fill="none"></path></g></g><g stroke-opacity="0.5" fill-opacity="0.5" transform="translate(825.0135135136425 1250.1891891891703) rotate(0 48.5 12.5)"><text x="48.5" y="18" font-family="Virgil, Segoe UI Emoji" font-size="20px" fill="#495057" text-anchor="middle" style="white-space: pre;" direction="ltr">accessory</text></g><g stroke-opacity="0.5" fill-opacity="0.5" transform="translate(1562.1891891891792 1077.986486486487) rotate(0 33.7837837837842 34.459459459459595)"><path d="M26.404042899129923 -0.08073406291256902 C32.75778289034196 -1.3981346170360982, 44.42131151467593 1.129269197298497, 51.15673038839158 4.98302970377533 C57.89214926210723 8.836790210252163, 64.46094521759258 16.431460810709225, 66.81655614142383 23.041828975948427 C69.17216706525508 29.652197141187628, 67.7380603769584 37.992243498742354, 65.29039593137911 44.645238695210544 C62.842731485799824 51.298233891678734, 58.06296263743046 58.701884538264004, 52.13056946794812 62.95980015475758 C46.19817629846578 67.21771577125116, 36.45193330179355 70.81875082784659, 29.696036914485056 70.19273239417201 C22.940140527176563 69.56671396049744, 16.29417564543162 64.11062419663031, 11.595191144097154 59.20368955271013 C6.89620664276269 54.29675490878995, 2.4096304793151595 47.975888576006916, 1.5021299064782738 40.75112453065094 C0.5946293336413883 33.526360485294965, 3.0290553357016328 21.976875764747614, 6.15018770707584 15.855105280574286 C9.271320078450048 9.733334796400957, 14.617377861151368 6.663910388194781, 20.22892413472352 4.020501625610969 C25.840470408295673 1.377092863027157, 34.905910152011266 -0.3037123214840373, 39.81946534850876 -0.005347294928583324 C44.73302054500625 0.29301773162687067, 50.02461878615761 5.0690434176128845, 49.71025531370847 5.8106917849436925 M45.91160629893915 3.864612502697433 C53.38032373898418 5.896537140533358, 60.791670664291516 10.138346991568682, 64.7363228882766 15.68909645717002 C68.68097511226169 21.23984592277136, 70.84924560426663 30.08089852002712, 69.57951964284968 37.169109296305464 C68.30979368143272 44.25732007258381, 62.6354766033632 53.432342879580666, 57.11796711977493 58.21836111484009 C51.60045763618666 63.00437935009952, 43.400551146553056 65.2975098163518, 36.474462741320046 65.88521870786201 C29.54837433608704 66.47292759937221, 21.57918370420907 65.34161580527336, 15.561436688376883 61.74461446390133 C9.543689672544698 58.14761312252929, 2.485482443714026 51.00349074396149, 0.36798064632693084 44.3032106596298 C-1.7495211510601645 37.6029305752981, 0.03350770809099801 27.930056801464342, 2.856425904054312 21.542933957911167 C5.679344100017627 15.155811114357991, 11.397581579425712 9.619704213862443, 17.305489822106814 5.980473598310752 C23.213398064787917 2.3412429827590615, 34.32031970492997 0.8199032877635233, 38.303875360140935 -0.292449735398975 C42.2874310153519 -1.4048027585614733, 40.75339418943068 -1.1706630851149893, 41.20682375337258 -0.6936445406642378 C41.660253317314485 -0.21662599621348616, 41.07187969869087 1.1709435048488832, 41.024452743792345 2.5696615313055347" stroke="#495057" stroke-width="2" fill="none"></path></g><g><g stroke-opacity="0.5" fill-opacity="0.5" transform="translate(1527.9100125739478 1360.078088807709) rotate(0 30.473741745108782 -99.05546513091588)"><path d="M2.454517086967826 2.794305023923516 C12.208214869604065 -30.51301084894624, 51.48070179028091 -166.77545555078422, 60.60503848384651 -200.90523528575523 M0.34244500637054465 1.8429025125503538 C9.7425575100189 -31.032748717826472, 50.53945085346974 -164.45942636272247, 59.614411989930595 -198.1567231009118" stroke="#495057" stroke-width="2" fill="none"></path></g><g stroke-opacity="0.5" fill-opacity="0.5" transform="translate(1527.9100125739478 1360.078088807709) rotate(0 30.473741745108782 -99.05546513091588)"><path d="M65.61299440126359 -164.94132818956095 C58.77881422337576 -180.97619068518026, 56.48589806841735 -192.00442259724375, 59.5635520580742 -197.2164937408976 M62.1556939524734 -168.29129174094814 C60.53657414802825 -178.97571144909375, 60.185833251862974 -189.3580978917393, 58.402905774075116 -198.7732686607502" stroke="#495057" stroke-width="2" fill="none"></path></g><g stroke-opacity="0.5" fill-opacity="0.5" transform="translate(1527.9100125739478 1360.078088807709) rotate(0 30.473741745108782 -99.05546513091588)"><path d="M45.90307250510749 -170.6543817717765 C46.40473130856913 -184.89590762653688, 51.49096479614762 -193.78524332576342, 59.5635520580742 -197.2164937408976 M42.445772056317296 -174.0043453231637 C47.6289909814623 -182.58571339446013, 54.08380881983817 -190.99546281133786, 58.402905774075116 -198.7732686607502" stroke="#495057" stroke-width="2" fill="none"></path></g></g><g stroke-opacity="0.5" fill-opacity="0.5" transform="translate(1479.8513513514918 1378.5675675675504) rotate(0 31.5 12.5)"><text x="31.5" y="18" font-family="Virgil, Segoe UI Emoji" font-size="20px" fill="#495057" text-anchor="middle" style="white-space: pre;" direction="ltr">button</text></g><g stroke-opacity="0.9" fill-opacity="0.9" transform="translate(585.3243243243924 54.93243243242864) rotate(0 37.16216216216253 37.1621621621623)"><path d="M7.652507644339128 14.526709314177307 C11.819793467227228 8.681452246373542, 21.71483530109604 1.4011307089539329, 29.533328004635663 -0.13866416880208732 C37.35182070817528 -1.6784590465581075, 48.06879087857124 1.869694608735864, 54.56346386557686 5.287940047641186 C61.05813685258247 8.706185486546508, 65.15585033889533 14.084844602146024, 68.50136592666934 20.370808464629846 C71.84688151444334 26.656772327113668, 75.61802213113761 35.563936941761405, 74.63655739222085 43.003723222544124 C73.6550926533041 50.443509503326844, 68.2035557380786 60.03262627680638, 62.61257749316877 65.00952614932618 C57.02159924825894 69.98642602184597, 48.52412279374385 72.02920890818277, 41.09068792276185 72.86512245766289 C33.657253051779854 73.70103600714302, 24.663145224432345 73.5894856273142, 18.011968267276774 70.02500744620689 C11.360791310121204 66.46052926509957, 4.087131886601888 58.83474345037524, 1.1836261798284298 51.478253371019015 C-1.7198795269450282 44.12176329166279, -2.754312647068561 33.61580203379697, 0.5909340266360275 25.886066970069535 C3.936180700340616 18.1563319063421, 15.296194549730725 8.97536685544925, 21.25510622205596 5.099842988654402 C27.214017894381197 1.2243191218595535, 36.00348929618314 2.4269139712841628, 36.344404060587436 2.6329237693004472 M61.3415314631559 9.023006250383922 C66.9484113888986 13.844102891917712, 73.04884242877912 23.292134396451104, 74.0420524611648 31.26067082611687 C75.03526249355048 39.22920725578263, 70.75131863767135 49.86333100597553, 67.30079165746994 56.83422482837851 C63.850264677268534 63.80511865078149, 60.05209425536967 69.87546610865043, 53.33889057995634 73.08603376053475 C46.62568690454302 76.29660141241907, 34.33874648816159 78.04979460006561, 27.021569604989992 76.09763073968442 C19.704392721818397 74.14546687930323, 14.359566912066722 67.50646763036055, 9.435829280926768 61.37305059824758 C4.5120916497868135 55.239633566134614, -2.114581144894508 46.98900413085559, -2.5208561818497373 39.2971285470066 C-2.9271312188049663 31.605252963157614, 2.445565175548319 21.606372230195287, 6.998179059195394 15.221797095153654 C11.550792942842468 8.837221960112021, 17.617182162403484 3.6376002284741538, 24.79482712003271 0.9896777367568106 C31.972472077661937 -1.6582447549605326, 43.42851704319816 -2.430740648940117, 50.06404880497075 -0.6657378551504038 C56.69958056674334 1.099264938639309, 62.47176104198439 9.492865124445313, 64.60801769066826 11.579694499495087 C66.74427433935215 13.666523874544861, 63.667231680301654 11.353103706708561, 62.88158869707402 11.855238395148238" stroke="#495057" stroke-width="2" fill="none"></path></g><g stroke-opacity="0.9" fill-opacity="0.9" transform="translate(584.9864864864758 10) rotate(0 62.5 12.5)"><text x="62.5" y="18" font-family="Virgil, Segoe UI Emoji" font-size="20px" fill="#495057" text-anchor="middle" style="white-space: pre;" direction="ltr">threadobject</text></g><g><g stroke-opacity="0.9" fill-opacity="0.9" transform="translate(1622.2702702702736 360.6351351351366) rotate(0 118.92297433003296 -2.496085988478484)"><path d="M1.7522401187568901 -0.01722748614847669 C40.25925284030375 -0.7719114501432007, 194.1129934674669 -3.92116066821189, 233.69850261337086 -4.974944490808502 M-0.7410680302977561 -2.4948905029892923 C38.340321338721495 -2.687757660985532, 198.63579852495778 -0.9048971933153406, 238.58701669036375 -1.1119339680107991" stroke="#495057" stroke-width="2" fill="none"></path></g><g stroke-opacity="0.9" fill-opacity="0.9" transform="translate(1622.2702702702736 360.6351351351366) rotate(0 118.92297433003296 -2.496085988478484)"><path d="M210.33144019674646 5.054742755602602 C222.1510177408513 8.646203140226177, 231.3486661354883 -2.841374544833437, 235.03851609661208 -2.7840949548217218 M209.76249561775612 9.530970312889222 C221.77387594408816 3.848403804421488, 232.14657039594584 -0.20781341388317465, 236.96926497093366 0.3948174221632321" stroke="#495057" stroke-width="2" fill="none"></path></g><g stroke-opacity="0.9" fill-opacity="0.9" transform="translate(1622.2702702702736 360.6351351351366) rotate(0 118.92297433003296 -2.496085988478484)"><path d="M210.41225171691093 -15.466306727405042 C222.1344215943436 -3.7706395171182967, 231.30015975270902 -7.155021813569668, 235.03851609661208 -2.7840949548217218 M209.8433071379206 -10.990079170118422 C221.5142510990334 -8.917025006113041, 231.8564048457184 -5.217821699977358, 236.96926497093366 0.3948174221632321" stroke="#495057" stroke-width="2" fill="none"></path></g></g><g stroke-opacity="0.9" fill-opacity="0.9" transform="translate(1866.9324324324516 341.37837837838083) rotate(0 67.5 12.5)"><text x="67.5" y="18" font-family="Virgil, Segoe UI Emoji" font-size="20px" fill="#495057" text-anchor="middle" style="white-space: pre;" direction="ltr">thread object</text></g><g><g stroke-opacity="0.9" fill-opacity="0.9" transform="translate(526.8507574701962 515.748978838054) rotate(0 36.8015212661503 -186.76628809376263)"><path d="M-0.8789722595363856 2.330059919133782 C10.31678443690477 -60.64691462228266, 56.60707188299985 -312.6421446432455, 68.99074450859953 -375.862636106659 M3.8393471574783327 1.1266386365890506 C15.785959950664026 -61.54235661593147, 62.93675453771344 -309.5973856301639, 74.48201479183663 -372.1947939686219" stroke="#495057" stroke-width="2" fill="none"></path></g><g stroke-opacity="0.9" fill-opacity="0.9" transform="translate(526.8507574701962 515.748978838054) rotate(0 36.8015212661503 -186.76628809376263)"><path d="M82.6950596732174 -344.99171882751193 C77.26292016026343 -349.490381723305, 73.86613392700589 -364.90557938404083, 71.0254472622477 -376.1660147562365 M80.97211980010317 -341.0223339244237 C76.19725293658125 -350.46865822101995, 74.67135833874978 -363.15873467148833, 73.2727874999695 -370.8053996871899" stroke="#495057" stroke-width="2" fill="none"></path></g><g stroke-opacity="0.9" fill-opacity="0.9" transform="translate(526.8507574701962 515.748978838054) rotate(0 36.8015212661503 -186.76628809376263)"><path d="M62.52600398830351 -348.7771111671093 C64.50689139419183 -351.7679901450459, 68.4690763759083 -365.80203274826874, 71.0254472622477 -376.1660147562365 M60.80306411518928 -344.8077262640211 C62.663843814943036 -353.04370743222046, 67.79442387369988 -364.4844756073083, 73.2727874999695 -370.8053996871899" stroke="#495057" stroke-width="2" fill="none"></path></g></g><g stroke-opacity="0.9" fill-opacity="0.9" transform="translate(905.7162162162367 1479.297297297296) rotate(0 108.5 12.5)"><text x="108.5" y="18" font-family="Virgil, Segoe UI Emoji" font-size="20px" fill="#495057" text-anchor="middle" style="white-space: pre;" direction="ltr">ThreadObjectManager</text></g><g stroke-opacity="0.9" fill-opacity="0.9" transform="translate(879.081081081069 1460.716216216217) rotate(0 143.9189189189192 33.78378378378375)"><path d="M2.201669170151945 -0.13235289263859476 C78.27563127550489 5.427378078786859, 152.9905191961871 0.6618523510550633, 286.98767899897416 -1.8331019495077192 M-1.0190269808732977 0.31576540012360477 C95.6264262802134 2.9423500471374417, 194.3923860312201 5.2318277122223, 286.7415741098227 0.6647771706335465 M290.6603088045649 3.4960348568856716 C285.6435709798563 19.913980187244093, 287.1792630756128 39.82386506228025, 287.421559896522 69.41506228525486 M289.83630951327905 0.22624519653618336 C288.23952153576846 13.744710153925242, 287.35436305655475 28.478539567491058, 286.00706698579415 66.42776854079511 M287.2649680036852 67.42177202661412 C188.12629469364904 63.63828443782283, 94.81483560304099 63.014272268940886, -1.5805342265323428 64.61081375989252 M289.02741699031424 68.02187456742809 C203.36600846167576 70.9463629860601, 115.35917985002526 71.03110331489135, -1.2187749772730447 68.476951404135 M2.052158895879984 71.32963059027043 C-0.18985767133936826 44.215629702635255, -0.45657188661799375 28.725160156552825, -2.5078714452683926 -1.4625345505774021 M-1.10682219453156 68.15341533463743 C-0.07010971271508493 44.010941199756914, -0.9358399387549714 18.70748874761565, 0.14175128750503063 -1.5236008446663618" stroke="#495057" stroke-width="2" fill="none"></path></g><g><g stroke-opacity="0.9" fill-opacity="0.9" transform="translate(665.5675675675702 1213.4189189189203) rotate(0 97.9526309687044 118.64949031147)"><path d="M-2.062845316901803 -2.006292166933417 C31.14187668001117 37.795887491264736, 164.7159885339668 199.21585647294322, 197.96810725430913 239.30527278987347 M2.0128001546859746 3.0762668466567993 C35.0192009513871 42.009124412321846, 163.8088622131428 195.26789064299962, 196.0942522676564 235.09121207585216" stroke="#495057" stroke-width="2" fill="none"></path></g><g stroke-opacity="0.9" fill-opacity="0.9" transform="translate(665.5675675675702 1213.4189189189203) rotate(0 97.9526309687044 118.64949031147)"><path d="M167.3495705134039 220.87385237856287 C178.964213122099 224.38449090077688, 184.4557970435396 228.73727261717943, 197.30105796995528 232.80926774507046 M168.741901374123 218.07683014950234 C177.33101093898395 222.87894070090522, 186.62109396301358 227.72001984131853, 196.00649197007485 234.81388751668513" stroke="#495057" stroke-width="2" fill="none"></path></g><g stroke-opacity="0.9" fill-opacity="0.9" transform="translate(665.5675675675702 1213.4189189189203) rotate(0 97.9526309687044 118.64949031147)"><path d="M183.15872709309224 207.78987092700396 C190.78816071611723 214.40387796047185, 192.2485365935586 222.09296993537524, 197.30105796995528 232.80926774507046 M184.55105795381132 204.99284869794343 C188.4166223744264 213.6429740555937, 192.85914022392865 222.49599731896095, 196.00649197007485 234.81388751668513" stroke="#495057" stroke-width="2" fill="none"></path></g></g><g stroke-opacity="0.9" fill-opacity="0.9" transform="translate(633.8918918919135 1318.486486486485) rotate(0 56 12.5)"><text x="56" y="18" font-family="Virgil, Segoe UI Emoji" font-size="20px" fill="#495057" text-anchor="middle" style="white-space: pre;" direction="ltr">dataSource</text></g><g><g stroke-opacity="0.9" fill-opacity="0.9" transform="translate(677.3026833250769 125.79921696327938) rotate(0 77.25230467615802 114.85157371203745)"><path d="M0.20402090214192858 -2.1070327069610357 C25.447025440552896 36.30053644969858, 126.34842657406661 189.7099677068391, 151.97922904033402 228.57797908863708 M-3.12974910736084 2.9208385848999026 C23.0085882784864 41.91361967103976, 131.6918413863285 194.53970373239605, 157.63435845967572 231.8101801310359" stroke="#495057" stroke-width="2" fill="none"></path></g><g stroke-opacity="0.9" fill-opacity="0.9" transform="translate(677.3026833250769 125.79921696327938) rotate(0 77.25230467615802 114.85157371203745)"><path d="M129.9989119667726 212.71029579275904 C139.58133006229747 221.0045605794073, 151.0317022334618 228.8353869694459, 156.89065807085674 228.6487114500879 M132.06945958288185 216.11427300246118 C141.2345578217985 218.88356156467302, 148.66501606166634 223.81677744085508, 156.64505353156667 233.07199537909315" stroke="#495057" stroke-width="2" fill="none"></path></g><g stroke-opacity="0.9" fill-opacity="0.9" transform="translate(677.3026833250769 125.79921696327938) rotate(0 77.25230467615802 114.85157371203745)"><path d="M146.77397904590364 200.89009584197598 C150.85395243362214 212.97489213068582, 156.9595475052506 224.5718038490791, 156.89065807085674 228.6487114500879 M148.8445266620129 204.2940730516781 C152.6923686282588 210.75389974835372, 154.77774448582315 219.45341606400376, 156.64505353156667 233.07199537909315" stroke="#495057" stroke-width="2" fill="none"></path></g></g><g stroke-opacity="0.9" fill-opacity="0.9" transform="translate(955.0810810811618 1557.6621621621618) rotate(0 60 14)"><text x="60" y="21" font-family="Virgil, Segoe UI Emoji" font-size="20px" fill="#495057" text-anchor="middle" style="white-space: pre;" direction="ltr">增删改查排序</text></g><g><g stroke-opacity="0.9" fill-opacity="0.9" transform="translate(1652.6756756756786 474.68918918919053) rotate(0 93.92605142789671 2.5960435916946665)"><path d="M-2.053319815173745 -1.4007982518523932 C29.132064247537226 -0.4708512644812042, 158.3821430241494 5.105198045648846, 189.9054226709668 6.5928854352417146 M2.0274966430664065 4.010457458496093 C32.7742033399975 3.998614218771996, 158.31592270584687 2.370879931750608, 188.78981690277797 2.226849192026511" stroke="#495057" stroke-width="2" fill="none"></path></g><g stroke-opacity="0.9" fill-opacity="0.9" transform="translate(1652.6756756756786 474.68918918919053) rotate(0 93.92605142789671 2.5960435916946665)"><path d="M158.69463105207262 15.703117919053772 C173.5467311810912 7.881481801363709, 186.1095026302005 7.450235409769009, 192.39434782957179 4.539216456207887 M160.69811581341503 13.916032678346971 C167.71179613349344 12.341566204664868, 173.14576242836372 7.6267797994495865, 187.51727308688206 3.264312080312029" stroke="#495057" stroke-width="2" fill="none"></path></g><g stroke-opacity="0.9" fill-opacity="0.9" transform="translate(1652.6756756756786 474.68918918919053) rotate(0 93.92605142789671 2.5960435916946665)"><path d="M158.50360756556125 -4.817201581710355 C173.5805791386745 -4.432951625146288, 186.2197130335548 3.3388863981558803, 192.39434782957179 4.539216456207887 M160.50709232690366 -6.604286822417157 C167.76378274264175 -3.928343947931805, 173.23729189874638 -4.395316844339366, 187.51727308688206 3.264312080312029" stroke="#495057" stroke-width="2" fill="none"></path></g></g><g stroke-opacity="0.9" fill-opacity="0.9" transform="translate(1861.2837837838088 458.9459459459522) rotate(0 74.5 12.5)"><text x="74.5" y="18" font-family="Virgil, Segoe UI Emoji" font-size="20px" fill="#495057" text-anchor="middle" style="white-space: pre;" direction="ltr">message object</text></g></svg>