<?xml version="1.0" standalone="no"?>
<!DOCTYPE svg PUBLIC "-//W3C//DTD SVG 20010904//EN"
 "http://www.w3.org/TR/2001/REC-SVG-20010904/DTD/svg10.dtd">
<svg version="1.0" xmlns="http://www.w3.org/2000/svg"
 width="256.000000pt" height="256.000000pt" viewBox="0 0 256.000000 256.000000"
 preserveAspectRatio="xMidYMid meet">
<metadata>
Created by potrace 1.11, written by Peter Selinger 2001-2013
</metadata>
<g transform="translate(0.000000,256.000000) scale(0.100000,-0.100000)"
fill="#000000" stroke="none">
<path d="M797 2436 c-21 -8 -47 -22 -57 -31 -50 -45 -148 -301 -175 -454 -3
-19 -8 -37 -10 -40 -2 -4 -7 -49 -10 -101 -4 -52 -9 -96 -10 -98 -2 -2 -36
-12 -77 -22 -193 -48 -297 -111 -303 -185 -4 -36 0 -43 38 -80 46 -43 143 -86
260 -113 59 -14 67 -19 67 -40 0 -40 -18 -60 -59 -67 -55 -9 -61 -20 -49 -85
7 -38 7 -55 -1 -58 -17 -6 -14 -26 39 -233 27 -108 51 -207 53 -220 3 -15 12
-25 25 -27 13 -2 22 -11 22 -21 0 -31 25 -44 62 -32 18 5 52 15 76 21 28 7 42
16 43 28 0 9 12 -25 25 -77 24 -97 43 -136 76 -159 10 -7 15 -19 12 -25 -4 -7
-4 -9 1 -5 7 7 76 -38 83 -54 2 -5 9 -8 16 -8 7 0 21 -8 32 -18 34 -30 117
-75 169 -92 22 -7 46 -20 53 -29 11 -14 11 -14 6 1 -4 13 -1 15 15 11 11 -3
18 -10 15 -15 -3 -5 3 -4 15 4 17 11 25 11 42 0 12 -8 18 -9 14 -3 -3 7 2 11
15 11 14 0 19 -4 14 -12 -6 -10 -4 -10 7 -2 13 11 70 28 94 29 6 0 16 6 23 13
8 7 18 10 23 7 5 -4 9 -1 9 4 0 6 5 11 11 11 6 0 24 9 40 21 16 11 29 17 29
13 0 -4 7 1 15 12 8 10 15 15 15 10 0 -6 7 -1 15 10 8 10 15 15 15 10 0 -5 9
1 20 14 11 13 20 19 20 15 0 -4 8 2 19 13 10 12 21 22 25 22 15 0 75 68 81 93
4 15 11 27 17 27 5 0 6 4 3 10 -3 5 -1 29 6 52 6 24 12 49 12 56 0 16 -1 16
85 -8 39 -11 74 -20 77 -20 2 0 11 14 20 30 9 17 22 30 30 30 8 0 17 12 21 27
28 123 76 312 84 330 17 41 23 115 9 123 -10 6 -10 20 -1 66 14 65 11 69 -48
80 -47 9 -57 18 -58 58 -1 33 1 35 38 41 58 10 194 59 245 89 55 33 75 61 75
107 0 51 -29 83 -113 123 -66 31 -105 44 -224 75 -45 12 -47 16 -58 139 -8 85
-43 250 -70 337 -59 184 -123 252 -230 240 -27 -3 -86 -15 -130 -27 -128 -34
-261 -29 -468 16 -203 45 -269 51 -320 32z m-186 -1168 c0 -7 2 -22 5 -33 2
-11 7 -45 10 -75 l7 -55 -30 33 c-17 17 -33 32 -35 32 -1 0 -27 -7 -56 -14
-28 -8 -50 -11 -47 -6 3 4 20 11 39 14 26 5 38 15 50 40 9 19 16 43 16 55 0
14 6 21 20 21 11 0 20 -6 21 -12z m1393 -27 c6 -42 44 -81 77 -81 11 0 19 -4
19 -10 0 -5 -18 -3 -41 5 -37 13 -45 13 -75 -1 -19 -9 -32 -20 -29 -24 3 -5 0
-12 -6 -16 -9 -5 -10 1 -5 22 3 16 11 55 17 87 13 67 34 75 43 18z"/>
<path d="M867 279 c7 -7 15 -10 18 -7 3 3 -2 9 -12 12 -14 6 -15 5 -6 -5z"/>
<path d="M1715 280 c3 -5 8 -10 11 -10 2 0 4 5 4 10 0 6 -5 10 -11 10 -5 0 -7
-4 -4 -10z"/>
</g>
</svg>
